<?xml version="1.0" standalone="no"?>
<!DOCTYPE svg PUBLIC "-//W3C//DTD SVG 1.1//EN" "http://www.w3.org/Graphics/SVG/1.1/DTD/svg11.dtd" >
<svg xmlns="http://www.w3.org/2000/svg" xmlns:xlink="http://www.w3.org/1999/xlink" version="1.1">
<metadata>
Created by FontForge 20161013 at Fri Jan  1 02:30:17 1904
 By ,,,
Copyright Dutch Design: Albert-Jan Pool, 1995. Published by FontShop International FontFont release 15.
</metadata>
<defs>
<font id="DIN-Black" horiz-adv-x="556" >
  <font-face 
    font-family="DIN-Black"
    font-weight="400"
    font-stretch="semi-condensed"
    units-per-em="1000"
    panose-1="2 11 5 0 0 0 0 0 0 0"
    ascent="800"
    descent="-200"
    x-height="538"
    cap-height="712"
    bbox="-122 -200 1184 1031"
    underline-thickness="108"
    underline-position="-240"
    unicode-range="U+0020-F002"
  />
<missing-glyph horiz-adv-x="502" 
d="M-1 0h500v500h-500v-500zM9 10v480h480v-480h-480z" />
    <glyph glyph-name=".notdef" horiz-adv-x="502" 
d="M-1 0h500v500h-500v-500zM9 10v480h480v-480h-480z" />
    <glyph glyph-name="glyph1" horiz-adv-x="222" 
 />
    <glyph glyph-name="glyph2" horiz-adv-x="222" 
 />
    <glyph glyph-name="space" unicode=" " horiz-adv-x="222" 
 />
    <glyph glyph-name="exclam" unicode="!" horiz-adv-x="366" 
d="M306 712h-206l44 -475h118zM287 0v161h-168v-161h168z" />
    <glyph glyph-name="quotedbl" unicode="&#x22;" horiz-adv-x="488" 
d="M431 478v234h-147v-234h147zM204 478v234h-147v-234h147z" />
    <glyph glyph-name="numbersign" unicode="#" horiz-adv-x="713" 
d="M666 412v155h-58l24 153h-174l-24 -153h-90l24 153h-174l-24 -153h-83v-155h58l-13 -88h-83v-155h58l-27 -169h174l27 169h90l-27 -169h174l27 169h83v155h-58l13 88h83zM409 412l-13 -88h-90l13 88h90z" />
    <glyph glyph-name="dollar" unicode="$" horiz-adv-x="633" 
d="M590 218q0 104 -53 156q-46 46 -140 59l-41 6v125q31 -2 61.5 -11t51.5 -30l110 110q-76 77 -203 84v89h-126v-91q-98 -13 -154.5 -73.5t-56.5 -148.5q0 -92 49 -143q50 -51 143 -63l39 -5v-132q-46 1 -87 13t-66 37l-112 -112q47 -49 107 -70.5t138 -23.5v-108h126v113
q95 15 154.5 72t59.5 147zM270 445q-31 4 -48 21q-14 14 -14 33q0 22 15.5 40t46.5 24v-118zM418 214q0 -49 -62 -61v122q16 -2 28 -6t20 -13q14 -14 14 -42z" />
    <glyph glyph-name="percent" unicode="%" horiz-adv-x="857" 
d="M812 133v95q0 67 -43.5 103t-107.5 36t-107.5 -36t-43.5 -103v-95q0 -67 43.5 -103t107.5 -36t107.5 36t43.5 103zM696 137q0 -21 -9.5 -30t-25.5 -9t-25.5 9t-9.5 30v87q0 21 9.5 30t25.5 9t25.5 -9t9.5 -30v-87zM661 712h-126l-339 -712h126zM347 484v95
q0 67 -43.5 103t-107.5 36t-107.5 -36t-43.5 -103v-95q0 -67 43.5 -103t107.5 -36t107.5 36t43.5 103zM231 488q0 -21 -9.5 -30t-25.5 -9t-25.5 9t-9.5 30v87q0 21 9.5 30t25.5 9t25.5 -9t9.5 -30v-87z" />
    <glyph glyph-name="ampersand" unicode="&#x26;" horiz-adv-x="710" 
d="M459 52l45 -52h206l-139 163q38 42 58 96.5t25 126.5h-154q-3 -30 -11 -58.5t-22 -44.5l-84 97q13 9 27.5 20t22.5 17q35 26 52.5 54.5t17.5 67.5q0 80 -53 129.5t-146 49.5q-100 0 -154.5 -48t-54.5 -129q0 -46 19 -80t48 -67q-47 -31 -80 -76.5t-33 -101.5
q0 -107 59 -164.5t182 -57.5q60 0 94.5 14t70.5 41zM349 538q0 -22 -28 -42q-4 -3 -12 -8.5t-12 -8.5l-2 2q-14 14 -25 28.5t-11 27.5q0 20 10.5 31.5t34.5 11.5q45 0 45 -42zM360 168q-14 -12 -29.5 -19t-40.5 -7q-34 0 -58.5 21.5t-24.5 53.5q0 26 9 43.5t33 34.5z" />
    <glyph glyph-name="quotesingle" unicode="'" horiz-adv-x="262" 
d="M205 478v234h-148v-234h148z" />
    <glyph glyph-name="parenleft" unicode="(" horiz-adv-x="358" 
d="M309 16l-9 9q-18 18 -27 28.5t-21 29.5q-16 27 -16 86v374q0 59 16 86q12 19 21 30t27 28l9 9l-110 110l-13 -13q-31 -30 -50.5 -52.5t-34.5 -47.5q-17 -29 -23 -64t-6 -80v-386q0 -45 6 -80t23 -64q14 -25 33.5 -46.5t51.5 -53.5l13 -13z" />
    <glyph glyph-name="parenright" unicode=")" horiz-adv-x="358" 
d="M286 163v386q0 45 -5.5 80t-23.5 64q-14 25 -33.5 46.5t-51.5 53.5l-13 13l-110 -110l9 -9q18 -17 27 -28t21 -30q16 -27 16 -86v-374q0 -59 -16 -86q-11 -19 -20.5 -29.5t-27.5 -28.5l-9 -9l110 -110l13 13q31 30 51 52.5t34 47.5q18 29 23.5 64t5.5 80z" />
    <glyph glyph-name="asterisk" unicode="*" horiz-adv-x="506" 
d="M459 453l-105 54l105 54l-56 97l-99 -64l5 118h-112l5 -118l-99 64l-56 -97l105 -54l-105 -54l56 -97l99 64l-5 -118h112l-5 118l99 -64z" />
    <glyph glyph-name="plus" unicode="+" 
d="M507 206v154h-152v152h-154v-152h-152v-154h152v-152h154v152h152z" />
    <glyph glyph-name="comma" unicode="," horiz-adv-x="288" 
d="M231 -50v224h-174v-352z" />
    <glyph glyph-name="hyphen" unicode="-" horiz-adv-x="426" 
d="M377 218v154h-328v-154h328z" />
    <glyph glyph-name="period" unicode="." horiz-adv-x="294" 
d="M237 0v180h-180v-180h180z" />
    <glyph glyph-name="slash" unicode="/" horiz-adv-x="431" 
d="M437 786h-152l-285 -860h152z" />
    <glyph glyph-name="zero" unicode="0" 
d="M507 216v280q0 53 -18.5 95t-51 70.5t-73.5 42.5t-86 14t-86 -14t-73.5 -42.5t-51 -70.5t-18.5 -95v-280q0 -53 18.5 -95t51 -70.5t73.5 -42.5t86 -14t86 14t73.5 42.5t51 70.5t18.5 95zM343 215q0 -36 -18.5 -54.5t-46.5 -18.5t-46.5 18.5t-18.5 54.5v281q0 36 18.5 55
t46.5 19t46.5 -19t18.5 -55v-281z" />
    <glyph glyph-name="one" unicode="1" 
d="M406 0v712h-164l-152 -132v-175l152 132v-537h164z" />
    <glyph glyph-name="two" unicode="2" 
d="M511 0v148h-258l170 180q48 51 68 87t20 88q0 99 -63.5 157t-164.5 58q-98 0 -164 -58t-66 -159h164q0 37 19.5 53t46.5 16q31 0 47.5 -18t16.5 -48q0 -22 -8 -38t-28 -38l-258 -280v-148h458z" />
    <glyph glyph-name="three" unicode="3" 
d="M516 213q0 57 -23 93.5t-59 61.5q33 21 53.5 53.5t20.5 85.5q0 46 -17 84.5t-48 67t-73 44t-91 15.5q-48 0 -89.5 -14.5t-73 -43t-49 -68.5t-17.5 -89h164q0 31 19 49t46 18t46 -18t19 -50q0 -27 -17 -47t-51 -20h-23v-142h23q33 0 54.5 -21.5t21.5 -53.5
q0 -37 -20 -56.5t-53 -19.5q-32 0 -52.5 19.5t-20.5 55.5h-164q0 -58 19.5 -100.5t53.5 -69.5t76 -40t88 -13q48 0 91 13.5t76 41t51.5 69t18.5 95.5z" />
    <glyph glyph-name="four" unicode="4" 
d="M530 94v156h-53v94h-156v-94h-115l236 462h-180l-236 -462v-156h295v-94h156v94h53z" />
    <glyph glyph-name="five" unicode="5" 
d="M512 243q0 59 -13 104t-53 85q-23 23 -58 36.5t-80 13.5q-29 0 -56 -9t-40 -19v110h285v148h-434v-419h151q8 22 22 36.5t45 14.5q33 0 50 -22.5t17 -78.5q0 -62 -21 -83q-18 -18 -46 -18q-31 0 -47 19.5t-20 55.5h-164q4 -51 16 -89t46 -72q26 -26 70 -44t99 -18
q56 0 97.5 17.5t67.5 43.5q39 39 52.5 80t13.5 108z" />
    <glyph glyph-name="six" unicode="6" 
d="M512 223q0 51 -16.5 91.5t-44.5 68t-62 41.5t-67 14q-26 0 -40 -5l141 279h-180l-137 -282l-5 -10q-32 -64 -47.5 -107.5t-15.5 -89.5q0 -109 68 -169t169 -60t169 60t68 169zM348 223q0 -38 -21 -59.5t-52 -21.5t-52 21.5t-21 59.5t21 59.5t52 21.5t52 -21.5t21 -59.5z
" />
    <glyph glyph-name="seven" unicode="7" 
d="M522 564v148h-488v-260h156v112h152l-222 -564h180z" />
    <glyph glyph-name="eight" unicode="8" 
d="M517 213q0 31 -8 56t-21 45q-17 24 -50 51l-1 1q30 25 51.5 58t21.5 83q0 49 -18.5 88.5t-51 67t-74.5 41.5t-88 14t-88 -14t-74.5 -41.5t-51 -67t-18.5 -88.5q0 -50 21.5 -83t51.5 -58l-1 -1q-15 -12 -27 -23.5t-24 -29.5t-20 -43t-8 -56q0 -106 67.5 -162.5
t171.5 -56.5t171.5 56.5t67.5 162.5zM346 502q0 -28 -20 -48t-48 -20t-48 20t-20 48t20 48t48 20t48 -20t20 -48zM353 217q0 -31 -22 -53t-53 -22t-53 22t-22 53t22 53t53 22t53 -22t22 -53z" />
    <glyph glyph-name="nine" unicode="9" 
d="M518 489q0 109 -68 169t-169 60t-169 -60t-68 -169q0 -50 16.5 -91t45 -68.5t62 -41.5t66.5 -14q26 0 40 5l-141 -279h180l137 282l5 10q32 64 47.5 107.5t15.5 89.5zM354 489q0 -38 -21 -59.5t-52 -21.5t-52 21.5t-21 59.5t21 59.5t52 21.5t52 -21.5t21 -59.5z" />
    <glyph glyph-name="colon" unicode=":" horiz-adv-x="317" 
d="M260 253v180h-180v-180h180zM260 0v180h-180v-180h180z" />
    <glyph glyph-name="semicolon" unicode=";" horiz-adv-x="317" 
d="M260 253v180h-180v-180h180zM257 -50v224h-174v-352z" />
    <glyph glyph-name="less" unicode="&#x3c;" horiz-adv-x="1027" 
d="M979 218v154h-654l304 300h-205l-377 -377l377 -377h205l-304 300h654z" />
    <glyph glyph-name="equal" unicode="=" 
d="M507 340v154h-458v-154h458zM507 96v154h-458v-154h458z" />
    <glyph glyph-name="greater" unicode="&#x3e;" horiz-adv-x="1027" 
d="M980 295l-377 377h-205l304 -300h-655v-154h655l-304 -300h205z" />
    <glyph glyph-name="question" unicode="?" horiz-adv-x="538" 
d="M457 380q24 31 37.5 61.5t13.5 66.5q0 99 -65 154.5t-159 55.5q-95 0 -159.5 -56.5t-64.5 -154.5h164q0 29 15 46t45 17q29 0 44.5 -17t15.5 -44q0 -12 -7.5 -27.5t-19.5 -28.5l-70 -82q-22 -26 -31.5 -51.5t-9.5 -59.5v-23h164v9q0 12 5.5 25t12.5 22zM372 0v161h-168
v-161h168z" />
    <glyph glyph-name="at" unicode="@" horiz-adv-x="784" 
d="M735 -4v453q0 72 -14 120.5t-50 84.5q-37 37 -86.5 50.5t-121.5 13.5h-142q-73 0 -122.5 -14t-85.5 -50t-50 -85t-14 -120v-278q0 -65 18 -105.5t61 -83.5l113 113q-20 20 -28 37.5t-8 48.5v262q0 31 6.5 53.5t25.5 41.5t42 25.5t53 6.5h120q29 0 53.5 -7.5t41.5 -24.5
q18 -18 25 -41.5t7 -53.5v-26q-42 41 -109 41q-73 0 -119 -44q-32 -31 -40 -71t-8 -117q0 -78 8 -118t40 -70q46 -44 120 -44q37 0 63 11t50 35v-40zM579 226q0 -52 -14.5 -74t-45.5 -22t-45.5 22t-14.5 74t14.5 74t45.5 22t45.5 -22t14.5 -74z" />
    <glyph glyph-name="A" unicode="A" horiz-adv-x="653" 
d="M653 0l-259 712h-135l-259 -712h183l35 106h219l33 -106h183zM391 252h-124l64 190z" />
    <glyph glyph-name="B" unicode="B" horiz-adv-x="653" 
d="M604 210q0 35 -9 61.5t-22.5 44.5t-27 28.5t-29.5 20.5q28 19 53 53.5t25 87.5q0 94 -59 150t-168 56h-295v-712h310q98 0 160 55.5t62 154.5zM419 497q0 -24 -15 -41t-48 -17h-109v116h109q33 0 48 -17t15 -41zM429 220q0 -26 -15.5 -44.5t-48.5 -18.5h-118v125h118
q33 0 48.5 -18t15.5 -44z" />
    <glyph glyph-name="C" unicode="C" horiz-adv-x="609" 
d="M589 226h-178q-10 -35 -30.5 -55.5t-60.5 -20.5q-46 0 -69 30q-7 9 -11.5 19.5t-8 29t-5.5 49.5t-2 78t2 78.5t5.5 49.5t8 28.5t11.5 19.5q23 30 69 30q40 0 60.5 -20.5t30.5 -55.5h178q-19 114 -92 173t-178 59q-61 0 -109.5 -20t-88.5 -60q-47 -47 -59.5 -109
t-12.5 -173t12.5 -173t59.5 -109q40 -40 88.5 -60t109.5 -20q105 0 178 59t92 173z" />
    <glyph glyph-name="D" unicode="D" horiz-adv-x="651" 
d="M602 356q0 61 -2 100.5t-9.5 72.5t-22.5 60.5t-40 52.5q-35 36 -84.5 53t-107.5 17h-264v-712h264q58 0 107.5 17.5t84.5 52.5q25 25 40 52.5t22.5 60.5t9.5 73t2 100zM427 356q0 -46 -1 -74t-3 -44t-5.5 -25t-9.5 -17q-13 -19 -33 -29.5t-51 -10.5h-77v400h77
q31 0 51 -10.5t33 -29.5q6 -8 9.5 -17.5t5.5 -25.5t3 -43.5t1 -73.5z" />
    <glyph glyph-name="E" unicode="E" horiz-adv-x="608" 
d="M556 0v156h-309v125h264v156h-264v119h309v156h-484v-712h484z" />
    <glyph glyph-name="F" unicode="F" horiz-adv-x="596" 
d="M556 556v156h-484v-712h175v275h264v156h-264v125h309z" />
    <glyph glyph-name="G" unicode="G" horiz-adv-x="647" 
d="M598 311v99h-279v-146h105v-10q0 -22 -6.5 -42t-20.5 -34q-26 -28 -78 -28q-46 0 -69 30q-7 9 -11.5 19.5t-7.5 29t-5 49t-2 78.5t2 79t5 49t7.5 28t11.5 19q11 14 28.5 22.5t40.5 8.5q44 0 67.5 -19.5t34.5 -60.5h176q-7 46 -26 88t-52.5 75.5t-83.5 53t-116 19.5
q-63 0 -110.5 -20t-87.5 -60q-47 -47 -59.5 -109t-12.5 -173t12.5 -173t59.5 -109q40 -40 88.5 -60t109.5 -20q63 0 113.5 17.5t93.5 62.5q40 41 56 95.5t16 141.5z" />
    <glyph glyph-name="H" unicode="H" horiz-adv-x="680" 
d="M608 0v712h-175v-274h-186v274h-175v-712h175v282h186v-282h175z" />
    <glyph glyph-name="I" unicode="I" horiz-adv-x="319" 
d="M247 0v712h-175v-712h175z" />
    <glyph glyph-name="J" unicode="J" horiz-adv-x="516" 
d="M454 244v468h-175v-464q0 -49 -25 -73.5t-68 -24.5q-27 0 -43.5 8.5t-35.5 27.5l-115 -114q43 -43 87 -60.5t107 -17.5q51 0 99 15.5t86.5 47t60.5 79t22 108.5z" />
    <glyph glyph-name="K" unicode="K" horiz-adv-x="673" 
d="M673 0l-251 424l243 288h-214l-206 -252v252h-173v-712h173v223l60 69l164 -292h204z" />
    <glyph glyph-name="L" unicode="L" horiz-adv-x="576" 
d="M546 0v156h-299v556h-175v-712h474z" />
    <glyph glyph-name="M" unicode="M" horiz-adv-x="808" 
d="M736 0v712h-172l-160 -314l-160 314h-172v-712h175v341l101 -176h112l101 176v-341h175z" />
    <glyph glyph-name="N" unicode="N" horiz-adv-x="700" 
d="M628 0v712h-175v-358l-228 358h-153v-712h175v358l228 -358h153z" />
    <glyph glyph-name="O" unicode="O" horiz-adv-x="640" 
d="M591 356q0 111 -12.5 173t-59.5 109q-40 40 -88 60t-111 20t-111 -20t-88 -60q-47 -47 -59.5 -109t-12.5 -173t12.5 -173t59.5 -109q40 -40 88 -60t111 -20t111 20t88 60q47 47 59.5 109t12.5 173zM416 356q0 -48 -2 -78.5t-5 -48.5t-7.5 -28t-11.5 -19q-11 -14 -29 -23
t-41 -9t-41 9t-29 23q-7 9 -11.5 19t-7.5 28.5t-5 48.5t-2 78t2 79t5 49t7.5 28t11.5 19q11 14 29 22.5t41 8.5t41.5 -8.5t28.5 -22.5q7 -9 11.5 -19t8 -28.5t5 -49t1.5 -78.5z" />
    <glyph glyph-name="P" unicode="P" horiz-adv-x="627" 
d="M597 483q0 44 -16 85.5t-47 74t-77 51t-103 18.5h-282v-712h175v254h107q57 0 103 18.5t77 51t47 74t16 85.5zM422 483q0 -29 -20.5 -50.5t-55.5 -21.5h-99v144h99q35 0 55.5 -21.5t20.5 -50.5z" />
    <glyph glyph-name="Q" unicode="Q" horiz-adv-x="640" 
d="M602 61l-52 52q27 43 34 96.5t7 146.5q0 111 -12.5 173t-59.5 109q-40 40 -88 60t-111 20t-111 -20t-88 -60q-47 -47 -59.5 -109t-12.5 -173t12.5 -173t59.5 -109q40 -40 88 -60t111 -20q81 0 138 33l55 -55zM416 356q0 -57 -4 -105l-34 34l-89 -89l45 -45q-5 -1 -14 -1
q-23 0 -41 9t-29 23q-7 9 -11.5 19t-7.5 28.5t-5 48.5t-2 78t2 79t5 49t7.5 28t11.5 19q11 14 29 22.5t41 8.5t41.5 -8.5t28.5 -22.5q7 -9 11.5 -19t8 -28.5t5 -49t1.5 -78.5z" />
    <glyph glyph-name="R" unicode="R" horiz-adv-x="652" 
d="M635 0l-154 297q49 24 82.5 71.5t33.5 114.5q0 44 -16 85.5t-47 74t-77 51t-103 18.5h-282v-712h175v265h59l126 -265h203zM422 483q0 -29 -20.5 -50.5t-55.5 -21.5h-99v144h99q35 0 55.5 -21.5t20.5 -50.5z" />
    <glyph glyph-name="S" unicode="S" horiz-adv-x="593" 
d="M550 218q0 104 -53 156q-46 46 -140 59l-47 7l-39 5q-32 4 -49 21q-14 14 -14 33q0 26 22 46t64 20q44 0 76 -7.5t59 -34.5l110 110q-45 45 -103.5 65t-136.5 20q-119 0 -189.5 -63t-70.5 -162q0 -92 49 -143q48 -49 143 -63l44 -6l42 -6q32 -4 47 -19q14 -15 14 -42
q0 -64 -102 -64q-48 0 -90.5 12t-68.5 38l-112 -112q51 -53 116.5 -73.5t153.5 -20.5q57 0 107 15t88 43.5t59 70.5t21 95z" />
    <glyph glyph-name="T" unicode="T" horiz-adv-x="585" 
d="M555 556v156h-525v-156h175v-556h175v556h175z" />
    <glyph glyph-name="U" unicode="U" horiz-adv-x="660" 
d="M600 250v462h-175v-458q0 -49 -26 -76.5t-70 -27.5t-69 27.5t-25 76.5v458h-175v-462q0 -57 20.5 -104.5t58 -81.5t86.5 -52t104 -18t104.5 18t87 52t58.5 81.5t21 104.5z" />
    <glyph glyph-name="V" unicode="V" horiz-adv-x="601" 
d="M601 712h-182l-118 -398l-120 398h-181l235 -712h130z" />
    <glyph glyph-name="W" unicode="W" horiz-adv-x="906" 
d="M906 712h-183l-93 -376l-115 376h-124l-115 -376l-93 376h-183l196 -712h142l115 351l115 -351h143z" />
    <glyph glyph-name="X" unicode="X" horiz-adv-x="634" 
d="M634 0l-222 365l208 347h-199l-104 -201l-104 201h-199l208 -347l-222 -365h200l117 219l117 -219h200z" />
    <glyph glyph-name="Y" unicode="Y" horiz-adv-x="605" 
d="M605 712h-191l-111 -256l-112 256h-191l215 -422v-290h175v290z" />
    <glyph glyph-name="Z" unicode="Z" horiz-adv-x="543" 
d="M513 0v156h-274l274 420v136h-471v-156h261l-273 -420v-136h483z" />
    <glyph glyph-name="bracketleft" unicode="[" horiz-adv-x="416" 
d="M376 -74v148h-140v564h140v148h-304v-860h304z" />
    <glyph glyph-name="backslash" unicode="\" horiz-adv-x="431" 
d="M431 -74l-279 842h-152l279 -842h152z" />
    <glyph glyph-name="bracketright" unicode="]" horiz-adv-x="416" 
d="M344 -74v860h-304v-148h140v-564h-140v-148h304z" />
    <glyph glyph-name="asciicircum" unicode="^" horiz-adv-x="640" 
d="M583 375l-187 345h-152l-187 -345h173l90 165l90 -165h173z" />
    <glyph glyph-name="underscore" unicode="_" horiz-adv-x="640" 
d="M640 -186v108h-640v-108h640z" />
    <glyph glyph-name="grave" unicode="`" horiz-adv-x="500" 
d="M308 610l-49 180h-168l118 -180h99z" />
    <glyph glyph-name="a" unicode="a" horiz-adv-x="536" 
d="M483 0v349q0 97 -60.5 146t-176.5 49q-69 0 -112 -15.5t-84 -56.5l102 -102q20 20 37.5 28t48.5 8q43 0 62 -15.5t19 -51.5v-14h-109q-91 0 -137 -45t-46 -111q0 -79 47 -126q48 -48 129 -48q41 0 67.5 11.5t52.5 37.5v-44h160zM319 202q0 -39 -16 -54q-13 -12 -26.5 -16
t-38.5 -4q-26 0 -40 13t-14 32t14 31t38 12h83v-14z" />
    <glyph glyph-name="b" unicode="b" horiz-adv-x="569" 
d="M526 269q0 91 -8.5 142.5t-41.5 83.5q-23 23 -57 36t-73 13q-75 0 -120 -45v213h-164v-712h159v44q26 -26 54.5 -38t69.5 -12q39 0 73.5 13t57.5 36q33 33 41.5 84.5t8.5 141.5zM362 269q0 -67 -13 -97t-55 -30t-55 30t-13 97t13 97t55 30t55 -30t13 -97z" />
    <glyph glyph-name="c" unicode="c" horiz-adv-x="475" 
d="M457 63l-111 111q-17 -17 -32 -24.5t-34 -7.5q-30 0 -51 21q-27 28 -27 106t27 106q21 21 51 21q19 0 34 -7.5t32 -24.5l111 111q-69 69 -177 69q-41 0 -81.5 -11t-77.5 -41t-60 -85t-23 -138t23 -138t60 -85t77.5 -41t81.5 -11q108 0 177 69z" />
    <glyph glyph-name="d" unicode="d" horiz-adv-x="569" 
d="M507 0v712h-164v-213q-45 45 -120 45q-39 0 -73 -13t-57 -36q-32 -32 -41 -83.5t-9 -142.5q0 -90 9 -141.5t41 -84.5q23 -23 57.5 -36t73.5 -13q41 0 69.5 12t54.5 38v-44h159zM343 269q0 -67 -13 -97t-55 -30t-55 30t-13 97t13 97t55 30t55 -30t13 -97z" />
    <glyph glyph-name="e" unicode="e" horiz-adv-x="559" 
d="M521 216v73q0 53 -16 99.5t-47 81.5t-76.5 54.5t-102.5 19.5q-108 0 -174.5 -73t-66.5 -202q0 -83 22 -138t59 -84.5t81 -41t94 -11.5q71 0 118 20.5t91 64.5l-98 98q-24 -24 -47.5 -34.5t-63.5 -10.5q-44 0 -69.5 24.5t-25.5 59.5h322zM359 325h-160q0 24 9 42
q8 19 26 30.5t45 11.5q28 0 45.5 -11.5t25.5 -30.5q9 -18 9 -42z" />
    <glyph glyph-name="f" unicode="f" horiz-adv-x="358" 
d="M333 391v126h-90v35q0 33 33 33h57v138h-87q-42 0 -74.5 -14t-52.5 -37t-30 -51t-10 -57v-47h-49v-126h49v-391h164v391h90z" />
    <glyph glyph-name="g" unicode="g" horiz-adv-x="561" 
d="M499 39v499h-159v-44q-26 26 -53 38t-67 12q-79 0 -127 -48q-33 -33 -41.5 -76t-8.5 -131q0 -87 8.5 -130t41.5 -77q48 -48 126 -48q71 0 116 45v-39q0 -32 -20 -57t-67 -25q-58 0 -92 34l-102 -102q39 -39 87 -54.5t115 -15.5q54 0 99 16t78 46q66 61 66 157zM335 289
q0 -52 -12 -79.5t-52 -27.5t-52 27.5t-12 79.5t12 79.5t52 27.5t52 -27.5t12 -79.5z" />
    <glyph glyph-name="h" unicode="h" horiz-adv-x="573" 
d="M516 0v349q0 86 -44 140.5t-128 54.5q-32 0 -62.5 -12.5t-55.5 -37.5v218h-164v-712h164v326q0 38 20.5 54t42.5 16t42.5 -16t20.5 -54v-326h164z" />
    <glyph glyph-name="i" unicode="i" horiz-adv-x="288" 
d="M226 593v125h-164v-125h164zM226 0v517h-164v-517h164z" />
    <glyph glyph-name="j" unicode="j" horiz-adv-x="288" 
d="M226 593v125h-164v-125h164zM226 -21v538h-164v-526q0 -33 -33 -33h-57v-138h87q43 0 75 14t52 37t30 51t10 57z" />
    <glyph glyph-name="k" unicode="k" horiz-adv-x="573" 
d="M573 0l-203 315l198 223h-197l-145 -188v362h-164v-712h164v162l32 35l112 -197h203z" />
    <glyph glyph-name="l" unicode="l" horiz-adv-x="341" 
d="M311 0v138h-57q-33 0 -33 33v541h-164v-553q0 -29 10 -57t30 -51t52.5 -37t74.5 -14h87z" />
    <glyph glyph-name="m" unicode="m" horiz-adv-x="875" 
d="M818 0v344q0 46 -13 83.5t-46 70.5q-22 22 -56 34t-73 12q-46 0 -81.5 -13t-70.5 -44q-50 57 -131 57q-33 0 -67 -13t-58 -37v44h-160v-538h164v322q0 22 7 36.5t17 23t21 11.5t21 3t21 -3t21.5 -11.5t17 -23t6.5 -36.5v-322h164v322q0 22 7 36.5t17 23t21 11.5t21 3
t21 -3t21.5 -11.5t17 -23t6.5 -36.5v-322h164z" />
    <glyph glyph-name="n" unicode="n" horiz-adv-x="579" 
d="M522 0v344q0 49 -11 85.5t-43 68.5q-46 46 -121 46q-33 0 -67 -13t-58 -37v44h-160v-538h164v322q0 22 7 36.5t17 23t21 11.5t21 3t21 -3t21.5 -11.5t17 -23t6.5 -36.5v-322h164z" />
    <glyph glyph-name="o" unicode="o" horiz-adv-x="550" 
d="M507 269q0 79 -12.5 124.5t-46.5 81.5q-28 30 -70.5 49.5t-102.5 19.5q-59 0 -102 -19.5t-71 -49.5q-34 -36 -46.5 -81.5t-12.5 -124.5q0 -80 12.5 -124.5t46.5 -81.5q28 -30 71 -49.5t102 -19.5q60 0 102.5 19.5t70.5 49.5q34 37 46.5 81.5t12.5 124.5zM343 269
q0 -45 -4.5 -71t-19.5 -41t-44 -15t-44 15t-19.5 41t-4.5 71t4.5 71t19.5 41t44 15t44 -15t19.5 -41t4.5 -71z" />
    <glyph glyph-name="p" unicode="p" horiz-adv-x="569" 
d="M526 269q0 91 -8.5 142.5t-41.5 83.5q-23 23 -57.5 36t-73.5 13q-41 0 -69.5 -12t-54.5 -38v44h-159v-712h164v213q45 -45 120 -45q39 0 73 13t57 36q33 33 41.5 84.5t8.5 141.5zM362 269q0 -67 -13 -97t-55 -30t-55 30t-13 97t13 97t55 30t55 -30t13 -97z" />
    <glyph glyph-name="q" unicode="q" horiz-adv-x="569" 
d="M507 -174v712h-159v-44q-26 26 -54.5 38t-69.5 12q-39 0 -73.5 -13t-57.5 -36q-32 -32 -41 -83.5t-9 -142.5q0 -90 9 -141.5t41 -84.5q23 -23 57 -36t73 -13q75 0 120 45v-213h164zM343 269q0 -67 -13 -97t-55 -30t-55 30t-13 97t13 97t55 30t55 -30t13 -97z" />
    <glyph glyph-name="r" unicode="r" horiz-adv-x="475" 
d="M475 494q-27 27 -56 38.5t-70 11.5q-39 0 -73 -15t-54 -35v44h-160v-538h164v322q0 40 21.5 57t44.5 17q19 0 32 -7t27 -21z" />
    <glyph glyph-name="s" unicode="s" horiz-adv-x="504" 
d="M477 176q0 68 -40.5 112t-121.5 52l-83 8q-22 3 -28.5 11t-6.5 19t13 21t40 10q37 0 66.5 -6.5t47.5 -25.5l101 101q-37 37 -88.5 51.5t-123.5 14.5q-41 0 -79 -11t-69 -34t-48.5 -56.5t-17.5 -76.5q0 -75 41 -112t115 -44l83 -8q22 -2 30.5 -11.5t8.5 -22.5
q0 -19 -22.5 -27t-47.5 -8q-35 0 -68.5 8t-62.5 37l-106 -106q50 -50 103.5 -64t130.5 -14q48 0 90 11t74.5 33t50.5 57t18 81z" />
    <glyph glyph-name="t" unicode="t" horiz-adv-x="363" 
d="M323 0v138h-52q-33 0 -33 33v220h85v126h-85v154h-164v-154h-49v-126h49v-232q0 -29 10 -57t30 -51t52.5 -37t74.5 -14h82z" />
    <glyph glyph-name="u" unicode="u" horiz-adv-x="579" 
d="M517 0v538h-164v-322q0 -22 -6.5 -36.5t-17 -23t-21.5 -11.5t-21 -3t-21 3t-21 11.5t-17 23t-7 36.5v322h-164v-344q0 -49 11 -85.5t43 -68.5q46 -46 121 -46q34 0 67.5 13t57.5 37v-44h160z" />
    <glyph glyph-name="v" unicode="v" horiz-adv-x="521" 
d="M521 538h-172l-88 -279l-89 279h-172l198 -538h125z" />
    <glyph glyph-name="w" unicode="w" horiz-adv-x="780" 
d="M780 538h-173l-67 -279l-93 279h-114l-93 -279l-67 279h-173l162 -538h131l97 295l97 -295h131z" />
    <glyph glyph-name="x" unicode="x" 
d="M556 0l-187 275l180 263h-197l-75 -130l-73 130h-197l180 -263l-187 -275h197l80 136l82 -136h197z" />
    <glyph glyph-name="y" unicode="y" horiz-adv-x="514" 
d="M522 538h-172l-87 -279l-91 279h-172l179 -485l-15 -45q-8 -24 -20 -32t-35 -8h-35v-148h62q38 0 68 10.5t53 34.5q26 26 42 71z" />
    <glyph glyph-name="z" unicode="z" horiz-adv-x="489" 
d="M449 0v148h-209l209 269v121h-407v-148h193l-205 -269v-121h419z" />
    <glyph glyph-name="braceleft" unicode="{" horiz-adv-x="518" 
d="M478 -74v148h-70q-43 0 -57 14q-16 16 -16 64v104q0 28 -8 47t-20 30t-22 15.5t-23 7.5v0v0q11 3 22.5 8t23 15.5t19.5 29.5t8 47v104q0 48 16 64q14 14 57 14h70v148h-140q-77 0 -119 -42q-24 -24 -36 -54t-12 -63v-119q0 -43 -17 -60q-18 -18 -56 -18h-58v-148h58
q38 0 56 -18q17 -17 17 -60v-119q0 -32 12 -62.5t36 -54.5q42 -42 119 -42h140z" />
    <glyph glyph-name="bar" unicode="|" horiz-adv-x="364" 
d="M264 -74v860h-164v-860h164z" />
    <glyph glyph-name="braceright" unicode="}" horiz-adv-x="518" 
d="M478 282v148h-58q-38 0 -56 18q-17 17 -17 60v119q0 33 -11.5 63t-36.5 54q-42 42 -119 42h-140v-148h70q43 0 57 -14q16 -16 16 -64v-104q0 -28 8 -47t20 -30t22.5 -15.5t22.5 -7.5v0v0q-11 -3 -22.5 -7.5t-23 -15.5t-19.5 -30t-8 -47v-104q0 -48 -16 -64
q-14 -14 -57 -14h-70v-148h140q77 0 119 42q25 24 36.5 54.5t11.5 62.5v119q0 43 17 60q18 18 56 18h58z" />
    <glyph glyph-name="asciitilde" unicode="~" horiz-adv-x="646" 
d="M616 283l-106 104q-25 -25 -44.5 -33t-43.5 -8q-41 0 -84 25q-33 20 -60.5 27t-62.5 7q-51 0 -92.5 -22.5t-92.5 -73.5l104 -104q25 25 44.5 33t43.5 8q41 0 84 -25q33 -20 60.5 -27t62.5 -7q52 0 94 22.5t93 73.5z" />
    <glyph glyph-name="nbspace" unicode="&#xa0;" horiz-adv-x="222" 
 />
    <glyph glyph-name="exclamdown" unicode="&#xa1;" horiz-adv-x="366" 
d="M247 377v161h-168v-161h168zM266 -174l-44 475h-118l-44 -475h206z" />
    <glyph glyph-name="cent" unicode="&#xa2;" horiz-adv-x="499" 
d="M481 174l-107 107q-25 -25 -44 -33v236q19 -8 44 -33l107 107q-28 28 -60.5 47.5t-70.5 28.5v78h-126v-78q-82 -18 -134 -86t-52 -182t52 -181.5t134 -86.5v-98h126v98q38 9 70.5 28.5t60.5 47.5zM244 250q-5 3 -13 11q-29 32 -29 105q0 74 30 106q4 4 12 10v-232z" />
    <glyph glyph-name="sterling" unicode="&#xa3;" horiz-adv-x="597" 
d="M557 0v156h-287v122h93v126h-93v60q0 49 25 73.5t68 24.5q27 0 43.5 -8.5t35.5 -27.5l115 114q-43 43 -87 60.5t-107 17.5q-51 0 -99 -15.5t-86.5 -47t-60.5 -79t-22 -108.5v-64h-60v-126h60v-278h462z" />
    <glyph glyph-name="currency" unicode="&#xa4;" horiz-adv-x="674" 
d="M627 114l-73 73q26 54 26 108t-26 108l73 73l-109 109l-73 -73q-54 26 -108 26t-108 -26l-73 73l-109 -109l73 -73q-26 -54 -26 -108t26 -108l-73 -73l109 -109l73 73q54 -26 108 -26t108 26l73 -73zM432 295q0 -39 -28 -67t-67 -28t-67 28t-28 67t28 67t67 28t67 -28
t28 -67z" />
    <glyph glyph-name="yen" unicode="&#xa5;" horiz-adv-x="605" 
d="M605 712h-191l-111 -256l-112 256h-191l125 -246h-60v-126h125l25 -50v-50h-150v-126h150v-114h175v114h150v126h-150v50l25 50h125v126h-60z" />
    <glyph glyph-name="brokenbar" unicode="&#xa6;" horiz-adv-x="364" 
d="M264 436v350h-164v-350h164zM264 -74v350h-164v-350h164z" />
    <glyph glyph-name="section" unicode="&#xa7;" horiz-adv-x="516" 
d="M475 285q0 81 -35 121t-116 70l-54 20q-56 20 -56 48q0 14 12 24.5t35 10.5q21 0 34 -10t13 -32h152q0 37 -11 69.5t-34.5 57.5t-62 39.5t-91.5 14.5q-52 0 -90.5 -15t-62.5 -41t-35 -58t-11 -65q0 -50 18 -79t48 -47q-30 -19 -56.5 -56t-26.5 -84q0 -81 35 -121t116 -70
l54 -20q35 -13 47 -27.5t12 -30.5q0 -17 -13 -29t-37 -12q-23 0 -36.5 13t-13.5 31h-156q0 -50 17.5 -86.5t47.5 -58.5t66.5 -32t74.5 -10t74.5 11t66.5 34.5t47.5 59.5t17.5 85q0 54 -19 84.5t-52 50.5q29 20 55 57t26 83zM319 279q0 -21 -6 -33.5t-14 -19.5
q-15 -13 -39 -13t-39 13q-8 7 -14 19.5t-6 33.5t6 33.5t14 19.5q15 13 39 13t39 -13q8 -7 14 -19.5t6 -33.5z" />
    <glyph glyph-name="dieresis" unicode="&#xa8;" horiz-adv-x="500" 
d="M430 609v145h-134v-145h134zM204 609v145h-134v-145h134z" />
    <glyph glyph-name="copyright" unicode="&#xa9;" horiz-adv-x="822" 
d="M773 356q0 74 -28 140t-78 116t-116 78t-140 28t-140 -28t-116 -78t-78 -116t-28 -140t28 -140t78 -116t116 -78t140 -28t140 28t116 78t78 116t28 140zM670 356q0 -57 -19.5 -106t-54.5 -85t-82.5 -55t-102.5 -19t-102.5 19t-82.5 55t-54.5 85t-19.5 106t19.5 106
t54.5 85t82.5 55t102.5 19t102.5 -19t82.5 -55t54.5 -85t19.5 -106zM552 216l-67 67q-18 -15 -32 -21t-33 -6q-35 0 -56.5 25.5t-21.5 74.5t21.5 74.5t56.5 25.5q19 0 33 -6t32 -21l67 67q-29 25 -61 38.5t-71 13.5q-35 0 -67.5 -11.5t-58 -35t-40.5 -60t-15 -85.5t15 -85.5
t41 -60t58 -35t67 -11.5q39 0 71 13.5t61 38.5z" />
    <glyph glyph-name="ordfeminine" unicode="&#xaa;" horiz-adv-x="457" 
d="M407 283v279q0 156 -189 156q-56 0 -90.5 -12.5t-66.5 -44.5l82 -82q17 17 30.5 23t37.5 6q35 0 50 -12.5t15 -41.5v-11h-87q-72 0 -109 -36t-37 -89q0 -62 38 -100q39 -39 102 -39q33 0 54 9t42 30v-35h128zM276 444q0 -29 -13 -42q-9 -9 -20 -12t-32 -3q-19 0 -30 10
t-11 25t10.5 24.5t29.5 9.5h66v-12z" />
    <glyph glyph-name="guillemotleft" unicode="&#xab;" horiz-adv-x="672" 
d="M612 9v193l-81 78l81 77v193l-273 -270zM303 9v193l-79 78l79 77v193l-273 -270z" />
    <glyph glyph-name="logicalnot" unicode="&#xac;" 
d="M513 88v304h-470v-154h316v-150h154z" />
    <glyph glyph-name="minus" unicode="&#xad;" 
d="M507 218v154h-458v-154h458z" />
    <glyph glyph-name="registered" unicode="&#xae;" horiz-adv-x="822" 
d="M773 356q0 74 -28 140t-78 116t-116 78t-140 28t-140 -28t-116 -78t-78 -116t-28 -140t28 -140t78 -116t116 -78t140 -28t140 28t116 78t78 116t28 140zM670 356q0 -57 -19.5 -106t-54.5 -85t-82.5 -55t-102.5 -19t-102.5 19t-82.5 55t-54.5 85t-19.5 106t19.5 106
t54.5 85t82.5 55t102.5 19t102.5 -19t82.5 -55t54.5 -85t19.5 -106zM580 167l-71 158q26 13 43.5 38t17.5 60q0 50 -34.5 86t-94.5 36h-169v-378h103v141h31l57 -141h117zM467 423q0 -16 -11 -27t-29 -11h-52v76h52q18 0 29 -11t11 -27z" />
    <glyph glyph-name="macron" unicode="&#xaf;" horiz-adv-x="500" 
d="M413 639v105h-326v-105h326z" />
    <glyph glyph-name="degree" unicode="&#xb0;" horiz-adv-x="486" 
d="M439 534q0 40 -15 75.5t-42.5 63t-63 42.5t-75.5 15t-75.5 -15t-63 -42.5t-42.5 -63t-15 -75.5t15 -75.5t42.5 -63t63 -42.5t75.5 -15t75.5 15t63 42.5t42.5 63t15 75.5zM308 534q0 -27 -19 -46t-46 -19t-46 19t-19 46t19 46t46 19t46 -19t19 -46z" />
    <glyph glyph-name="plusminus" unicode="&#xb1;" 
d="M507 371v154h-152v152h-154v-152h-152v-154h152v-152h154v152h152zM507 0v154h-458v-154h458z" />
    <glyph glyph-name="twosuperior" unicode="&#xb2;" horiz-adv-x="367" 
d="M327 285v104h-146l87 83q32 31 45.5 54t13.5 57q0 62 -40 97.5t-103 35.5q-61 0 -102.5 -35t-41.5 -99h116q0 17 8.5 23.5t19.5 6.5q29 0 29 -29q0 -11 -4.5 -19t-17.5 -21l-151 -154v-104h287z" />
    <glyph glyph-name="threesuperior" unicode="&#xb3;" horiz-adv-x="375" 
d="M335 416q0 32 -11.5 51.5t-31.5 37.5l-1 1q18 14 29 31t11 49q0 56 -40.5 93t-102.5 37q-60 0 -102 -37t-42 -98h116q0 15 8 23t20 8q11 0 19.5 -8t8.5 -22q0 -10 -7.5 -19.5t-22.5 -9.5h-16v-99h16q13 0 23 -10t10 -24q0 -35 -32 -35t-32 36h-115q0 -36 12.5 -63.5
t33.5 -44t47 -24.5t54 -8q63 0 105.5 34.5t42.5 100.5z" />
    <glyph glyph-name="acute" unicode="&#xb4;" horiz-adv-x="500" 
d="M409 790h-168l-49 -180h99z" />
    <glyph glyph-name="mu" unicode="&#xb5;" horiz-adv-x="584" 
d="M522 0v538h-164v-322q0 -22 -6.5 -36.5t-17 -23t-21.5 -11.5t-21 -3t-21 3t-21 11.5t-17 23t-7 36.5v322h-164v-712h164v168h11q34 0 67.5 13t57.5 37v-44h160z" />
    <glyph glyph-name="paragraph" unicode="&#xb6;" horiz-adv-x="707" 
d="M635 -174v886h-364q-109 0 -175 -52.5t-66 -156.5q0 -43 16 -80.5t43.5 -65.5t61 -43.5t66.5 -15.5v-472h164v730h90v-730h164z" />
    <glyph glyph-name="cedilla" unicode="&#xb8;" horiz-adv-x="500" 
d="M333 -56h-115l-67 -144h146z" />
    <glyph glyph-name="onesuperior" unicode="&#xb9;" horiz-adv-x="311" 
d="M246 285v427h-116l-95 -82v-130l95 82v-297h116z" />
    <glyph glyph-name="ordmasculine" unicode="&#xba;" horiz-adv-x="466" 
d="M419 498q0 63 -10.5 99.5t-37.5 65.5q-22 24 -56 39.5t-82 15.5q-47 0 -81.5 -15.5t-56.5 -39.5q-27 -29 -37.5 -65.5t-10.5 -99.5q0 -64 10.5 -100t37.5 -65q22 -23 56.5 -39t81.5 -16q48 0 82 16t56 39q27 29 37.5 65t10.5 100zM287 498q0 -36 -3.5 -57t-15.5 -33
t-35 -12t-35 12t-15.5 33t-3.5 57t3.5 57t15.5 33t35 12t35 -12t15.5 -33t3.5 -57z" />
    <glyph glyph-name="guillemotright" unicode="&#xbb;" horiz-adv-x="672" 
d="M642 280l-273 270v-193l79 -77l-79 -78v-193zM333 280l-273 270v-193l80 -77l-80 -78v-193z" />
    <glyph glyph-name="onequarter" unicode="&#xbc;" horiz-adv-x="871" 
d="M831 53v110h-26v37h-109v-37h-53l139 264h-127l-138 -264v-110h179v-53h109v53h26zM659 712h-126l-339 -712h126zM246 285v427h-116l-95 -82v-130l95 82v-297h116z" />
    <glyph glyph-name="onehalf" unicode="&#xbd;" horiz-adv-x="904" 
d="M864 0v104h-146l87 83q32 31 45.5 54t13.5 57q0 62 -40 97.5t-103 35.5q-61 0 -102.5 -35t-41.5 -99h116q0 17 8.5 23.5t19.5 6.5q29 0 29 -29q0 -11 -4.5 -19t-17.5 -21l-151 -154v-104h287zM659 712h-126l-339 -712h126zM246 285v427h-116l-95 -82v-130l95 82v-297h116
z" />
    <glyph glyph-name="threequarters" unicode="&#xbe;" horiz-adv-x="891" 
d="M851 53v110h-26v37h-109v-37h-53l139 264h-127l-138 -264v-110h179v-53h109v53h26zM679 712h-126l-339 -712h126zM335 416q0 32 -11.5 51.5t-31.5 37.5l-1 1q18 14 29 31t11 49q0 56 -40.5 93t-102.5 37q-60 0 -102 -37t-42 -98h116q0 15 8 23t20 8q11 0 19.5 -8t8.5 -22
q0 -10 -7.5 -19.5t-22.5 -9.5h-16v-99h16q13 0 23 -10t10 -24q0 -35 -32 -35t-32 36h-115q0 -36 12.5 -63.5t33.5 -44t47 -24.5t54 -8q63 0 105.5 34.5t42.5 100.5z" />
    <glyph glyph-name="questiondown" unicode="&#xbf;" horiz-adv-x="538" 
d="M334 377v161h-168v-161h168zM291 167q22 26 31.5 51.5t9.5 59.5v23h-164v-9q0 -12 -5.5 -25t-12.5 -22l-69 -87q-24 -31 -37.5 -61.5t-13.5 -66.5q0 -99 65 -154.5t159 -55.5q95 0 159.5 56.5t64.5 154.5h-164q0 -29 -15 -46t-45 -17q-29 0 -44.5 17t-15.5 44
q0 12 8 27.5t19 28.5z" />
    <glyph glyph-name="Agrave" unicode="&#xc0;" horiz-adv-x="653" 
d="M653 0l-259 712h-135l-259 -712h183l35 106h219l33 -106h183zM391 252h-124l64 190zM384 782l-49 180h-168l118 -180h99z" />
    <glyph glyph-name="Aacute" unicode="&#xc1;" horiz-adv-x="653" 
d="M653 0l-259 712h-135l-259 -712h183l35 106h219l33 -106h183zM391 252h-124l64 190zM485 962h-168l-49 -180h99z" />
    <glyph glyph-name="Acircumflex" unicode="&#xc2;" horiz-adv-x="653" 
d="M653 0l-259 712h-135l-259 -712h183l35 106h219l33 -106h183zM391 252h-124l64 190zM525 782l-136 179h-126l-136 -179h120l79 83l79 -83h120z" />
    <glyph glyph-name="Atilde" unicode="&#xc3;" horiz-adv-x="653" 
d="M653 0l-259 712h-135l-259 -712h183l35 106h219l33 -106h183zM391 252h-124l64 190zM519 855l-70 69q-17 -17 -29.5 -22t-28.5 -5q-26 0 -55 17q-22 13 -39.5 17.5t-41.5 4.5q-34 0 -61 -14.5t-61 -48.5l68 -69q17 17 29.5 22t28.5 5q27 0 56 -17q22 -13 39.5 -17.5
t41.5 -4.5q34 0 62 15t61 48z" />
    <glyph glyph-name="Adieresis" unicode="&#xc4;" horiz-adv-x="653" 
d="M653 0l-259 712h-135l-259 -712h183l35 106h219l33 -106h183zM391 252h-124l64 190zM506 781v145h-134v-145h134zM280 781v145h-134v-145h134z" />
    <glyph glyph-name="Aring" unicode="&#xc5;" horiz-adv-x="653" 
d="M653 0l-259 712h-135l-259 -712h183l35 106h219l33 -106h183zM391 252h-124l64 190zM464 893q0 58 -40.5 98t-97.5 40t-97.5 -40.5t-40.5 -97.5t40.5 -97.5t97.5 -40.5t97.5 40.5t40.5 97.5zM378 893q0 -21 -15.5 -36.5t-36.5 -15.5t-36.5 15.5t-15.5 36.5t15.5 36.5
t36.5 15.5t36.5 -15.5t15.5 -36.5z" />
    <glyph glyph-name="AE" unicode="&#xc6;" horiz-adv-x="1013" 
d="M961 0v156h-309v125h264v156h-264v119h309v156h-591l-370 -712h188l77 149h212v-149h484zM477 295h-136l136 261v-261z" />
    <glyph glyph-name="Ccedilla" unicode="&#xc7;" horiz-adv-x="609" 
d="M589 226h-178q-10 -35 -30.5 -55.5t-60.5 -20.5q-46 0 -69 30q-7 9 -11.5 19.5t-8 29t-5.5 49.5t-2 78t2 78.5t5.5 49.5t8 28.5t11.5 19.5q23 30 69 30q40 0 60.5 -20.5t30.5 -55.5h178q-19 114 -92 173t-178 59q-61 0 -109.5 -20t-88.5 -60q-47 -47 -59.5 -109
t-12.5 -173t12.5 -173t59.5 -109q40 -40 88.5 -60t109.5 -20q105 0 178 59t92 173zM385 -56h-115l-67 -144h146z" />
    <glyph glyph-name="Egrave" unicode="&#xc8;" horiz-adv-x="608" 
d="M556 0v156h-309v125h264v156h-264v119h309v156h-484v-712h484zM366 782l-49 180h-168l118 -180h99z" />
    <glyph glyph-name="Eacute" unicode="&#xc9;" horiz-adv-x="608" 
d="M556 0v156h-309v125h264v156h-264v119h309v156h-484v-712h484zM467 962h-168l-49 -180h99z" />
    <glyph glyph-name="Ecircumflex" unicode="&#xca;" horiz-adv-x="608" 
d="M556 0v156h-309v125h264v156h-264v119h309v156h-484v-712h484zM507 782l-136 179h-126l-136 -179h120l79 83l79 -83h120z" />
    <glyph glyph-name="Edieresis" unicode="&#xcb;" horiz-adv-x="608" 
d="M556 0v156h-309v125h264v156h-264v119h309v156h-484v-712h484zM488 781v145h-134v-145h134zM262 781v145h-134v-145h134z" />
    <glyph glyph-name="Igrave" unicode="&#xcc;" horiz-adv-x="319" 
d="M247 0v712h-175v-712h175zM225 782l-49 180h-168l118 -180h99z" />
    <glyph glyph-name="Iacute" unicode="&#xcd;" horiz-adv-x="319" 
d="M247 0v712h-175v-712h175zM319 962h-168l-49 -180h99z" />
    <glyph glyph-name="Icircumflex" unicode="&#xce;" horiz-adv-x="319" 
d="M247 0v712h-175v-712h175zM353 782l-136 179h-126l-136 -179h120l79 83l79 -83h120z" />
    <glyph glyph-name="Idieresis" unicode="&#xcf;" horiz-adv-x="319" 
d="M247 0v712h-175v-712h175zM339 781v145h-134v-145h134zM113 781v145h-134v-145h134z" />
    <glyph glyph-name="Eth" unicode="&#xd0;" horiz-adv-x="679" 
d="M630 356q0 61 -2 100.5t-9.5 72.5t-22.5 60.5t-40 52.5q-35 36 -84.5 53t-107.5 17h-264v-285h-65v-134h65v-293h264q58 0 107.5 17.5t84.5 52.5q25 25 40 52.5t22.5 60.5t9.5 73t2 100zM455 356q0 -46 -1 -74t-3 -44t-5.5 -25t-9.5 -17q-13 -19 -33 -29.5t-51 -10.5h-77
v137h90v134h-90v129h77q31 0 51 -10.5t33 -29.5q6 -8 9.5 -17.5t5.5 -25.5t3 -43.5t1 -73.5z" />
    <glyph glyph-name="Ntilde" unicode="&#xd1;" horiz-adv-x="700" 
d="M628 0v712h-175v-358l-228 358h-153v-712h175v358l228 -358h153zM543 855l-70 69q-17 -17 -29.5 -22t-28.5 -5q-26 0 -55 17q-22 13 -39.5 17.5t-41.5 4.5q-34 0 -61 -14.5t-61 -48.5l68 -69q17 17 29.5 22t28.5 5q27 0 56 -17q22 -13 39.5 -17.5t41.5 -4.5q34 0 62 15
t61 48z" />
    <glyph glyph-name="Ograve" unicode="&#xd2;" horiz-adv-x="640" 
d="M591 356q0 111 -12.5 173t-59.5 109q-40 40 -88 60t-111 20t-111 -20t-88 -60q-47 -47 -59.5 -109t-12.5 -173t12.5 -173t59.5 -109q40 -40 88 -60t111 -20t111 20t88 60q47 47 59.5 109t12.5 173zM416 356q0 -48 -2 -78.5t-5 -48.5t-7.5 -28t-11.5 -19q-11 -14 -29 -23
t-41 -9t-41 9t-29 23q-7 9 -11.5 19t-7.5 28.5t-5 48.5t-2 78t2 79t5 49t7.5 28t11.5 19q11 14 29 22.5t41 8.5t41.5 -8.5t28.5 -22.5q7 -9 11.5 -19t8 -28.5t5 -49t1.5 -78.5zM378 782l-49 180h-168l118 -180h99z" />
    <glyph glyph-name="Oacute" unicode="&#xd3;" horiz-adv-x="640" 
d="M591 356q0 111 -12.5 173t-59.5 109q-40 40 -88 60t-111 20t-111 -20t-88 -60q-47 -47 -59.5 -109t-12.5 -173t12.5 -173t59.5 -109q40 -40 88 -60t111 -20t111 20t88 60q47 47 59.5 109t12.5 173zM416 356q0 -48 -2 -78.5t-5 -48.5t-7.5 -28t-11.5 -19q-11 -14 -29 -23
t-41 -9t-41 9t-29 23q-7 9 -11.5 19t-7.5 28.5t-5 48.5t-2 78t2 79t5 49t7.5 28t11.5 19q11 14 29 22.5t41 8.5t41.5 -8.5t28.5 -22.5q7 -9 11.5 -19t8 -28.5t5 -49t1.5 -78.5zM479 962h-168l-49 -180h99z" />
    <glyph glyph-name="Ocircumflex" unicode="&#xd4;" horiz-adv-x="640" 
d="M591 356q0 111 -12.5 173t-59.5 109q-40 40 -88 60t-111 20t-111 -20t-88 -60q-47 -47 -59.5 -109t-12.5 -173t12.5 -173t59.5 -109q40 -40 88 -60t111 -20t111 20t88 60q47 47 59.5 109t12.5 173zM416 356q0 -48 -2 -78.5t-5 -48.5t-7.5 -28t-11.5 -19q-11 -14 -29 -23
t-41 -9t-41 9t-29 23q-7 9 -11.5 19t-7.5 28.5t-5 48.5t-2 78t2 79t5 49t7.5 28t11.5 19q11 14 29 22.5t41 8.5t41.5 -8.5t28.5 -22.5q7 -9 11.5 -19t8 -28.5t5 -49t1.5 -78.5zM519 782l-136 179h-126l-136 -179h120l79 83l79 -83h120z" />
    <glyph glyph-name="Otilde" unicode="&#xd5;" horiz-adv-x="640" 
d="M591 356q0 111 -12.5 173t-59.5 109q-40 40 -88 60t-111 20t-111 -20t-88 -60q-47 -47 -59.5 -109t-12.5 -173t12.5 -173t59.5 -109q40 -40 88 -60t111 -20t111 20t88 60q47 47 59.5 109t12.5 173zM416 356q0 -48 -2 -78.5t-5 -48.5t-7.5 -28t-11.5 -19q-11 -14 -29 -23
t-41 -9t-41 9t-29 23q-7 9 -11.5 19t-7.5 28.5t-5 48.5t-2 78t2 79t5 49t7.5 28t11.5 19q11 14 29 22.5t41 8.5t41.5 -8.5t28.5 -22.5q7 -9 11.5 -19t8 -28.5t5 -49t1.5 -78.5zM513 855l-70 69q-17 -17 -29.5 -22t-28.5 -5q-26 0 -55 17q-22 13 -39.5 17.5t-41.5 4.5
q-34 0 -61 -14.5t-61 -48.5l68 -69q17 17 29.5 22t28.5 5q27 0 56 -17q22 -13 39.5 -17.5t41.5 -4.5q34 0 62 15t61 48z" />
    <glyph glyph-name="Odieresis" unicode="&#xd6;" horiz-adv-x="640" 
d="M591 356q0 111 -12.5 173t-59.5 109q-40 40 -88 60t-111 20t-111 -20t-88 -60q-47 -47 -59.5 -109t-12.5 -173t12.5 -173t59.5 -109q40 -40 88 -60t111 -20t111 20t88 60q47 47 59.5 109t12.5 173zM416 356q0 -48 -2 -78.5t-5 -48.5t-7.5 -28t-11.5 -19q-11 -14 -29 -23
t-41 -9t-41 9t-29 23q-7 9 -11.5 19t-7.5 28.5t-5 48.5t-2 78t2 79t5 49t7.5 28t11.5 19q11 14 29 22.5t41 8.5t41.5 -8.5t28.5 -22.5q7 -9 11.5 -19t8 -28.5t5 -49t1.5 -78.5zM500 781v145h-134v-145h134zM274 781v145h-134v-145h134z" />
    <glyph glyph-name="multiply" unicode="&#xd7;" 
d="M517 161l-136 134l136 135l-105 104l-135 -135l-134 135l-104 -104l136 -135l-136 -134l105 -104l134 135l135 -135z" />
    <glyph glyph-name="Oslash" unicode="&#xd8;" horiz-adv-x="640" 
d="M591 356q0 111 -12.5 173t-59.5 109l-4 4l55 114h-118l-27 -56q-45 18 -105 18q-63 0 -111 -20t-88 -60q-47 -47 -59.5 -109t-12.5 -173t12.5 -173t59.5 -109l4 -4l-55 -114h118l27 56q45 -18 105 -18q63 0 111 20t88 60q47 47 59.5 109t12.5 173zM364 552l-137 -289
q-3 35 -3 93q0 48 2 79t5 49t7.5 28t11.5 19q11 14 29 22.5t41 8.5q24 0 44 -10zM416 356q0 -48 -2 -78.5t-5 -48.5t-7.5 -28t-11.5 -19q-11 -14 -29 -23t-41 -9q-25 0 -44 11l137 288q3 -34 3 -93z" />
    <glyph glyph-name="Ugrave" unicode="&#xd9;" horiz-adv-x="660" 
d="M600 250v462h-175v-458q0 -49 -26 -76.5t-70 -27.5t-69 27.5t-25 76.5v458h-175v-462q0 -57 20.5 -104.5t58 -81.5t86.5 -52t104 -18t104.5 18t87 52t58.5 81.5t21 104.5zM388 782l-49 180h-168l118 -180h99z" />
    <glyph glyph-name="Uacute" unicode="&#xda;" horiz-adv-x="660" 
d="M600 250v462h-175v-458q0 -49 -26 -76.5t-70 -27.5t-69 27.5t-25 76.5v458h-175v-462q0 -57 20.5 -104.5t58 -81.5t86.5 -52t104 -18t104.5 18t87 52t58.5 81.5t21 104.5zM489 962h-168l-49 -180h99z" />
    <glyph glyph-name="Ucircumflex" unicode="&#xdb;" horiz-adv-x="660" 
d="M600 250v462h-175v-458q0 -49 -26 -76.5t-70 -27.5t-69 27.5t-25 76.5v458h-175v-462q0 -57 20.5 -104.5t58 -81.5t86.5 -52t104 -18t104.5 18t87 52t58.5 81.5t21 104.5zM529 782l-136 179h-126l-136 -179h120l79 83l79 -83h120z" />
    <glyph glyph-name="Udieresis" unicode="&#xdc;" horiz-adv-x="660" 
d="M600 250v462h-175v-458q0 -49 -26 -76.5t-70 -27.5t-69 27.5t-25 76.5v458h-175v-462q0 -57 20.5 -104.5t58 -81.5t86.5 -52t104 -18t104.5 18t87 52t58.5 81.5t21 104.5zM510 781v145h-134v-145h134zM284 781v145h-134v-145h134z" />
    <glyph glyph-name="Yacute" unicode="&#xdd;" horiz-adv-x="605" 
d="M605 712h-191l-111 -256l-112 256h-191l215 -422v-290h175v290zM461 962h-168l-49 -180h99z" />
    <glyph glyph-name="Thorn" unicode="&#xde;" horiz-adv-x="627" 
d="M597 360q0 44 -16 85.5t-47 74t-77 51t-103 18.5h-107v123h-175v-712h175v131h107q57 0 103 18.5t77 51t47 74t16 85.5zM422 360q0 -29 -20.5 -50.5t-55.5 -21.5h-99v144h99q35 0 55.5 -21.5t20.5 -50.5z" />
    <glyph glyph-name="germandbls" unicode="&#xdf;" horiz-adv-x="584" 
d="M534 173v152q0 43 -16.5 66.5t-44.5 36.5q26 15 43.5 40.5t17.5 68.5q0 91 -62.5 136t-169.5 45q-52 0 -95 -11t-76 -34.5t-51 -61.5t-18 -92v-519h165v505q0 36 16.5 53t58.5 17q39 0 55 -15q12 -10 12 -29q0 -23 -12.5 -32.5t-31.5 -9.5h-23v-126h19q24 0 36 -13
q12 -12 12 -35v-129q0 -24 -13 -36q-12 -12 -35 -12h-19v-138h52q93 0 138 45q42 43 42 128z" />
    <glyph glyph-name="agrave" unicode="&#xe0;" horiz-adv-x="536" 
d="M483 0v349q0 97 -60.5 146t-176.5 49q-69 0 -112 -15.5t-84 -56.5l102 -102q20 20 37.5 28t48.5 8q43 0 62 -15.5t19 -51.5v-14h-109q-91 0 -137 -45t-46 -111q0 -79 47 -126q48 -48 129 -48q41 0 67.5 11.5t52.5 37.5v-44h160zM319 202q0 -39 -16 -54q-13 -12 -26.5 -16
t-38.5 -4q-26 0 -40 13t-14 32t14 31t38 12h83v-14zM324 610l-49 180h-168l118 -180h99z" />
    <glyph glyph-name="aacute" unicode="&#xe1;" horiz-adv-x="536" 
d="M483 0v349q0 97 -60.5 146t-176.5 49q-69 0 -112 -15.5t-84 -56.5l102 -102q20 20 37.5 28t48.5 8q43 0 62 -15.5t19 -51.5v-14h-109q-91 0 -137 -45t-46 -111q0 -79 47 -126q48 -48 129 -48q41 0 67.5 11.5t52.5 37.5v-44h160zM319 202q0 -39 -16 -54q-13 -12 -26.5 -16
t-38.5 -4q-26 0 -40 13t-14 32t14 31t38 12h83v-14zM425 790h-168l-49 -180h99z" />
    <glyph glyph-name="acircumflex" unicode="&#xe2;" horiz-adv-x="536" 
d="M483 0v349q0 97 -60.5 146t-176.5 49q-69 0 -112 -15.5t-84 -56.5l102 -102q20 20 37.5 28t48.5 8q43 0 62 -15.5t19 -51.5v-14h-109q-91 0 -137 -45t-46 -111q0 -79 47 -126q48 -48 129 -48q41 0 67.5 11.5t52.5 37.5v-44h160zM319 202q0 -39 -16 -54q-13 -12 -26.5 -16
t-38.5 -4q-26 0 -40 13t-14 32t14 31t38 12h83v-14zM465 610l-136 179h-126l-136 -179h120l79 83l79 -83h120z" />
    <glyph glyph-name="atilde" unicode="&#xe3;" horiz-adv-x="536" 
d="M483 0v349q0 97 -60.5 146t-176.5 49q-69 0 -112 -15.5t-84 -56.5l102 -102q20 20 37.5 28t48.5 8q43 0 62 -15.5t19 -51.5v-14h-109q-91 0 -137 -45t-46 -111q0 -79 47 -126q48 -48 129 -48q41 0 67.5 11.5t52.5 37.5v-44h160zM319 202q0 -39 -16 -54q-13 -12 -26.5 -16
t-38.5 -4q-26 0 -40 13t-14 32t14 31t38 12h83v-14zM459 683l-70 69q-17 -17 -29.5 -22t-28.5 -5q-26 0 -55 17q-22 13 -39.5 17.5t-41.5 4.5q-34 0 -61 -14.5t-61 -48.5l68 -69q17 17 29.5 22t28.5 5q27 0 56 -17q22 -13 39.5 -17.5t41.5 -4.5q34 0 62 15t61 48z" />
    <glyph glyph-name="adieresis" unicode="&#xe4;" horiz-adv-x="536" 
d="M483 0v349q0 97 -60.5 146t-176.5 49q-69 0 -112 -15.5t-84 -56.5l102 -102q20 20 37.5 28t48.5 8q43 0 62 -15.5t19 -51.5v-14h-109q-91 0 -137 -45t-46 -111q0 -79 47 -126q48 -48 129 -48q41 0 67.5 11.5t52.5 37.5v-44h160zM319 202q0 -39 -16 -54q-13 -12 -26.5 -16
t-38.5 -4q-26 0 -40 13t-14 32t14 31t38 12h83v-14zM446 609v145h-134v-145h134zM220 609v145h-134v-145h134z" />
    <glyph glyph-name="aring" unicode="&#xe5;" horiz-adv-x="536" 
d="M483 0v349q0 97 -60.5 146t-176.5 49q-69 0 -112 -15.5t-84 -56.5l102 -102q20 20 37.5 28t48.5 8q43 0 62 -15.5t19 -51.5v-14h-109q-91 0 -137 -45t-46 -111q0 -79 47 -126q48 -48 129 -48q41 0 67.5 11.5t52.5 37.5v-44h160zM319 202q0 -39 -16 -54q-13 -12 -26.5 -16
t-38.5 -4q-26 0 -40 13t-14 32t14 31t38 12h83v-14zM404 731q0 58 -40.5 98t-97.5 40t-97.5 -40.5t-40.5 -97.5t40.5 -97.5t97.5 -40.5t97.5 40.5t40.5 97.5zM318 731q0 -21 -15.5 -36.5t-36.5 -15.5t-36.5 15.5t-15.5 36.5t15.5 36.5t36.5 15.5t36.5 -15.5t15.5 -36.5z" />
    <glyph glyph-name="ae" unicode="&#xe6;" horiz-adv-x="840" 
d="M802 216v73q0 53 -16 99.5t-47 81.5t-76.5 54.5t-102.5 19.5q-85 0 -144 -45q-58 45 -170 45q-69 0 -112 -15.5t-84 -56.5l102 -102q20 20 37.5 28t48.5 8q43 0 62 -15.5t19 -51.5v-14h-109q-91 0 -137 -45t-46 -111q0 -79 47 -126q49 -49 129 -49q59 0 99.5 12t84.5 53
q35 -35 83.5 -50t104.5 -15q71 0 118 20.5t91 64.5l-98 98q-24 -24 -47.5 -34.5t-63.5 -10.5q-44 0 -69.5 24.5t-25.5 59.5h322zM640 325h-160q0 24 9 42q8 19 26 30.5t45 11.5q28 0 45.5 -11.5t25.5 -30.5q9 -18 9 -42zM319 202q0 -39 -16 -54q-13 -12 -26.5 -16t-38.5 -4
q-26 0 -40 13t-14 32t14 31t38 12h83v-14z" />
    <glyph glyph-name="ccedilla" unicode="&#xe7;" horiz-adv-x="475" 
d="M457 63l-111 111q-17 -17 -32 -24.5t-34 -7.5q-30 0 -51 21q-27 28 -27 106t27 106q21 21 51 21q19 0 34 -7.5t32 -24.5l111 111q-69 69 -177 69q-41 0 -81.5 -11t-77.5 -41t-60 -85t-23 -138t23 -138t60 -85t77.5 -41t81.5 -11q108 0 177 69zM333 -56h-115l-67 -144h146
z" />
    <glyph glyph-name="egrave" unicode="&#xe8;" horiz-adv-x="559" 
d="M521 216v73q0 53 -16 99.5t-47 81.5t-76.5 54.5t-102.5 19.5q-108 0 -174.5 -73t-66.5 -202q0 -83 22 -138t59 -84.5t81 -41t94 -11.5q71 0 118 20.5t91 64.5l-98 98q-24 -24 -47.5 -34.5t-63.5 -10.5q-44 0 -69.5 24.5t-25.5 59.5h322zM359 325h-160q0 24 9 42
q8 19 26 30.5t45 11.5q28 0 45.5 -11.5t25.5 -30.5q9 -18 9 -42zM341 610l-49 180h-168l118 -180h99z" />
    <glyph glyph-name="eacute" unicode="&#xe9;" horiz-adv-x="559" 
d="M521 216v73q0 53 -16 99.5t-47 81.5t-76.5 54.5t-102.5 19.5q-108 0 -174.5 -73t-66.5 -202q0 -83 22 -138t59 -84.5t81 -41t94 -11.5q71 0 118 20.5t91 64.5l-98 98q-24 -24 -47.5 -34.5t-63.5 -10.5q-44 0 -69.5 24.5t-25.5 59.5h322zM359 325h-160q0 24 9 42
q8 19 26 30.5t45 11.5q28 0 45.5 -11.5t25.5 -30.5q9 -18 9 -42zM442 790h-168l-49 -180h99z" />
    <glyph glyph-name="ecircumflex" unicode="&#xea;" horiz-adv-x="559" 
d="M521 216v73q0 53 -16 99.5t-47 81.5t-76.5 54.5t-102.5 19.5q-108 0 -174.5 -73t-66.5 -202q0 -83 22 -138t59 -84.5t81 -41t94 -11.5q71 0 118 20.5t91 64.5l-98 98q-24 -24 -47.5 -34.5t-63.5 -10.5q-44 0 -69.5 24.5t-25.5 59.5h322zM359 325h-160q0 24 9 42
q8 19 26 30.5t45 11.5q28 0 45.5 -11.5t25.5 -30.5q9 -18 9 -42zM482 610l-136 179h-126l-136 -179h120l79 83l79 -83h120z" />
    <glyph glyph-name="edieresis" unicode="&#xeb;" horiz-adv-x="559" 
d="M521 216v73q0 53 -16 99.5t-47 81.5t-76.5 54.5t-102.5 19.5q-108 0 -174.5 -73t-66.5 -202q0 -83 22 -138t59 -84.5t81 -41t94 -11.5q71 0 118 20.5t91 64.5l-98 98q-24 -24 -47.5 -34.5t-63.5 -10.5q-44 0 -69.5 24.5t-25.5 59.5h322zM359 325h-160q0 24 9 42
q8 19 26 30.5t45 11.5q28 0 45.5 -11.5t25.5 -30.5q9 -18 9 -42zM463 609v145h-134v-145h134zM237 609v145h-134v-145h134z" />
    <glyph glyph-name="igrave" unicode="&#xec;" horiz-adv-x="288" 
d="M226 0v538h-164v-538h164zM221 610l-49 180h-168l118 -180h99z" />
    <glyph glyph-name="iacute" unicode="&#xed;" horiz-adv-x="288" 
d="M226 0v538h-164v-538h164zM285 790h-168l-49 -180h99z" />
    <glyph glyph-name="icircumflex" unicode="&#xee;" horiz-adv-x="288" 
d="M226 0v538h-164v-538h164zM343 610l-136 179h-126l-136 -179h120l79 83l79 -83h120z" />
    <glyph glyph-name="idieresis" unicode="&#xef;" horiz-adv-x="288" 
d="M226 0v538h-164v-538h164zM326 609v145h-134v-145h134zM100 609v145h-134v-145h134z" />
    <glyph glyph-name="eth" unicode="&#xf0;" horiz-adv-x="550" 
d="M499 259q0 39 -3.5 69t-11 56t-18.5 52.5t-30 69.5l-26 57h41v114h-97l-22 46h-176l22 -46h-57v-114h113l20 -40q-40 -1 -77 -18q-42 -18 -69 -47q-32 -35 -44.5 -78.5t-12.5 -120.5q0 -78 12.5 -121t44.5 -78q27 -29 68 -47.5t99 -18.5t99 18.5t68 47.5q33 35 45 78
t12 121zM335 259q0 -43 -4 -66.5t-17 -36.5q-14 -14 -39 -14t-39 14q-13 13 -17 36.5t-4 66.5t4 66.5t17 36.5q14 14 39 14t39 -14q13 -13 17 -36.5t4 -66.5z" />
    <glyph glyph-name="ntilde" unicode="&#xf1;" horiz-adv-x="579" 
d="M522 0v344q0 49 -11 85.5t-43 68.5q-46 46 -121 46q-33 0 -67 -13t-58 -37v44h-160v-538h164v322q0 22 7 36.5t17 23t21 11.5t21 3t21 -3t21.5 -11.5t17 -23t6.5 -36.5v-322h164zM485 683l-70 69q-17 -17 -29.5 -22t-28.5 -5q-26 0 -55 17q-22 13 -39.5 17.5t-41.5 4.5
q-34 0 -61 -14.5t-61 -48.5l68 -69q17 17 29.5 22t28.5 5q27 0 56 -17q22 -13 39.5 -17.5t41.5 -4.5q34 0 62 15t61 48z" />
    <glyph glyph-name="ograve" unicode="&#xf2;" horiz-adv-x="550" 
d="M343 269q0 -45 -4.5 -71t-19.5 -41t-44 -15t-44 15t-19.5 41t-4.5 71t4.5 71t19.5 41t44 15t44 -15t19.5 -41t4.5 -71zM507 269q0 79 -12.5 124.5t-46.5 81.5q-28 30 -70.5 49.5t-102.5 19.5q-59 0 -102 -19.5t-71 -49.5q-34 -36 -46.5 -81.5t-12.5 -124.5
q0 -80 12.5 -124.5t46.5 -81.5q28 -30 71 -49.5t102 -19.5q60 0 102.5 19.5t70.5 49.5q34 37 46.5 81.5t12.5 124.5zM333 610l-49 180h-168l118 -180h99z" />
    <glyph glyph-name="oacute" unicode="&#xf3;" horiz-adv-x="550" 
d="M343 269q0 -45 -4.5 -71t-19.5 -41t-44 -15t-44 15t-19.5 41t-4.5 71t4.5 71t19.5 41t44 15t44 -15t19.5 -41t4.5 -71zM507 269q0 79 -12.5 124.5t-46.5 81.5q-28 30 -70.5 49.5t-102.5 19.5q-59 0 -102 -19.5t-71 -49.5q-34 -36 -46.5 -81.5t-12.5 -124.5
q0 -80 12.5 -124.5t46.5 -81.5q28 -30 71 -49.5t102 -19.5q60 0 102.5 19.5t70.5 49.5q34 37 46.5 81.5t12.5 124.5zM434 790h-168l-49 -180h99z" />
    <glyph glyph-name="ocircumflex" unicode="&#xf4;" horiz-adv-x="550" 
d="M343 269q0 -45 -4.5 -71t-19.5 -41t-44 -15t-44 15t-19.5 41t-4.5 71t4.5 71t19.5 41t44 15t44 -15t19.5 -41t4.5 -71zM507 269q0 79 -12.5 124.5t-46.5 81.5q-28 30 -70.5 49.5t-102.5 19.5q-59 0 -102 -19.5t-71 -49.5q-34 -36 -46.5 -81.5t-12.5 -124.5
q0 -80 12.5 -124.5t46.5 -81.5q28 -30 71 -49.5t102 -19.5q60 0 102.5 19.5t70.5 49.5q34 37 46.5 81.5t12.5 124.5zM474 610l-136 179h-126l-136 -179h120l79 83l79 -83h120z" />
    <glyph glyph-name="otilde" unicode="&#xf5;" horiz-adv-x="550" 
d="M343 269q0 -45 -4.5 -71t-19.5 -41t-44 -15t-44 15t-19.5 41t-4.5 71t4.5 71t19.5 41t44 15t44 -15t19.5 -41t4.5 -71zM507 269q0 79 -12.5 124.5t-46.5 81.5q-28 30 -70.5 49.5t-102.5 19.5q-59 0 -102 -19.5t-71 -49.5q-34 -36 -46.5 -81.5t-12.5 -124.5
q0 -80 12.5 -124.5t46.5 -81.5q28 -30 71 -49.5t102 -19.5q60 0 102.5 19.5t70.5 49.5q34 37 46.5 81.5t12.5 124.5zM468 683l-70 69q-17 -17 -29.5 -22t-28.5 -5q-26 0 -55 17q-22 13 -39.5 17.5t-41.5 4.5q-34 0 -61 -14.5t-61 -48.5l68 -69q17 17 29.5 22t28.5 5
q27 0 56 -17q22 -13 39.5 -17.5t41.5 -4.5q34 0 62 15t61 48z" />
    <glyph glyph-name="odieresis" unicode="&#xf6;" horiz-adv-x="550" 
d="M343 269q0 -45 -4.5 -71t-19.5 -41t-44 -15t-44 15t-19.5 41t-4.5 71t4.5 71t19.5 41t44 15t44 -15t19.5 -41t4.5 -71zM507 269q0 79 -12.5 124.5t-46.5 81.5q-28 30 -70.5 49.5t-102.5 19.5q-59 0 -102 -19.5t-71 -49.5q-34 -36 -46.5 -81.5t-12.5 -124.5
q0 -80 12.5 -124.5t46.5 -81.5q28 -30 71 -49.5t102 -19.5q60 0 102.5 19.5t70.5 49.5q34 37 46.5 81.5t12.5 124.5zM455 609v145h-134v-145h134zM229 609v145h-134v-145h134z" />
    <glyph glyph-name="divide" unicode="&#xf7;" 
d="M356 434v156h-156v-156h156zM513 218v154h-470v-154h470zM356 0v156h-156v-156h156z" />
    <glyph glyph-name="oslash" unicode="&#xf8;" horiz-adv-x="550" 
d="M507 269q0 73 -11 120t-51 89l61 104h-93l-34 -58q-47 20 -104 20q-59 0 -102 -19.5t-71 -49.5q-34 -36 -46.5 -81.5t-12.5 -124.5q0 -74 11 -120.5t51 -88.5l-61 -104h93l34 58q47 -20 104 -20q60 0 102.5 19.5t70.5 49.5q34 37 46.5 81.5t12.5 124.5zM309 389
l-100 -170q-2 14 -2 50q0 45 4.5 71t19.5 41t44 15q21 0 34 -7zM343 269q0 -45 -4.5 -71t-19.5 -41t-44 -15q-21 0 -34 7l100 170q2 -14 2 -50z" />
    <glyph glyph-name="ugrave" unicode="&#xf9;" horiz-adv-x="579" 
d="M517 0v538h-164v-322q0 -22 -6.5 -36.5t-17 -23t-21.5 -11.5t-21 -3t-21 3t-21 11.5t-17 23t-7 36.5v322h-164v-344q0 -49 11 -85.5t43 -68.5q46 -46 121 -46q34 0 67.5 13t57.5 37v-44h160zM345 610l-49 180h-168l118 -180h99z" />
    <glyph glyph-name="uacute" unicode="&#xfa;" horiz-adv-x="579" 
d="M517 0v538h-164v-322q0 -22 -6.5 -36.5t-17 -23t-21.5 -11.5t-21 -3t-21 3t-21 11.5t-17 23t-7 36.5v322h-164v-344q0 -49 11 -85.5t43 -68.5q46 -46 121 -46q34 0 67.5 13t57.5 37v-44h160zM446 790h-168l-49 -180h99z" />
    <glyph glyph-name="ucircumflex" unicode="&#xfb;" horiz-adv-x="579" 
d="M517 0v538h-164v-322q0 -22 -6.5 -36.5t-17 -23t-21.5 -11.5t-21 -3t-21 3t-21 11.5t-17 23t-7 36.5v322h-164v-344q0 -49 11 -85.5t43 -68.5q46 -46 121 -46q34 0 67.5 13t57.5 37v-44h160zM486 610l-136 179h-126l-136 -179h120l79 83l79 -83h120z" />
    <glyph glyph-name="udieresis" unicode="&#xfc;" horiz-adv-x="579" 
d="M517 0v538h-164v-322q0 -22 -6.5 -36.5t-17 -23t-21.5 -11.5t-21 -3t-21 3t-21 11.5t-17 23t-7 36.5v322h-164v-344q0 -49 11 -85.5t43 -68.5q46 -46 121 -46q34 0 67.5 13t57.5 37v-44h160zM467 609v145h-134v-145h134zM241 609v145h-134v-145h134z" />
    <glyph glyph-name="yacute" unicode="&#xfd;" horiz-adv-x="514" 
d="M522 538h-172l-87 -279l-91 279h-172l179 -485l-15 -45q-8 -24 -20 -32t-35 -8h-35v-148h62q38 0 68 10.5t53 34.5q26 26 42 71zM416 790h-168l-49 -180h99z" />
    <glyph glyph-name="thorn" unicode="&#xfe;" horiz-adv-x="571" 
d="M526 269q0 91 -8.5 142.5t-41.5 83.5q-23 23 -57 36t-73 13q-75 0 -120 -45v213h-164v-886h164v213q45 -45 120 -45q39 0 73 13t57 36q33 33 41.5 84.5t8.5 141.5zM362 269q0 -67 -13 -97t-55 -30t-55 30t-13 97t13 97t55 30t55 -30t13 -97z" />
    <glyph glyph-name="ydieresis" unicode="&#xff;" horiz-adv-x="514" 
d="M522 538h-172l-87 -279l-91 279h-172l179 -485l-15 -45q-8 -24 -20 -32t-35 -8h-35v-148h62q38 0 68 10.5t53 34.5q26 26 42 71zM437 609v145h-134v-145h134zM211 609v145h-134v-145h134z" />
    <glyph glyph-name="dotlessi" unicode="&#x131;" horiz-adv-x="288" 
d="M226 0v538h-164v-538h164z" />
    <glyph glyph-name="Lslash" unicode="&#x141;" horiz-adv-x="599" 
d="M569 0v156h-299v172l113 71v145l-113 -71v239h-175v-349l-60 -38v-146l60 38v-217h474z" />
    <glyph glyph-name="OE" unicode="&#x152;" horiz-adv-x="952" 
d="M900 0v156h-309v125h264v156h-264v119h309v156h-484v-26q-19 18 -46 25t-55 7q-64 0 -109 -18t-85 -58q-48 -48 -60 -112.5t-12 -173.5q0 -110 12 -174t60 -112q40 -40 84.5 -58t108.5 -18q28 0 55.5 7.5t46.5 24.5v-26h484zM416 356q0 -48 -2 -78.5t-5 -48.5t-7.5 -28
t-11.5 -19q-11 -14 -29 -23t-41 -9t-41 9t-29 23q-7 9 -11.5 19t-7.5 28.5t-5 48.5t-2 78t2 79t5 49t7.5 28t11.5 19q11 14 29 22.5t41 8.5t41.5 -8.5t28.5 -22.5q7 -9 11.5 -19t8 -28.5t5 -49t1.5 -78.5z" />
    <glyph glyph-name="oe" unicode="&#x153;" horiz-adv-x="864" 
d="M826 216v73q0 53 -16 99.5t-47 81.5t-76.5 54.5t-102.5 19.5q-92 0 -153 -53q-28 24 -66.5 38.5t-89.5 14.5q-59 0 -102 -19.5t-71 -49.5q-34 -36 -46.5 -81.5t-12.5 -124.5q0 -80 12.5 -124.5t46.5 -81.5q28 -30 71 -49.5t102 -19.5q50 0 87.5 13.5t65.5 36.5
q34 -27 78 -38.5t93 -11.5q71 0 118 20.5t91 64.5l-98 98q-24 -24 -47.5 -34.5t-63.5 -10.5q-44 0 -69.5 24.5t-25.5 59.5h322zM664 325h-160q0 24 9 42q8 19 26 30.5t45 11.5q28 0 45.5 -11.5t25.5 -30.5q9 -18 9 -42zM343 269q0 -45 -4.5 -71t-19.5 -41t-44 -15t-44 15
t-19.5 41t-4.5 71t4.5 71t19.5 41t44 15t44 -15t19.5 -41t4.5 -71z" />
    <glyph glyph-name="Scaron" unicode="&#x160;" horiz-adv-x="593" 
d="M550 218q0 104 -53 156q-46 46 -140 59l-47 7l-39 5q-32 4 -49 21q-14 14 -14 33q0 26 22 46t64 20q44 0 76 -7.5t59 -34.5l110 110q-45 45 -103.5 65t-136.5 20q-119 0 -189.5 -63t-70.5 -162q0 -92 49 -143q48 -49 143 -63l44 -6l42 -6q32 -4 47 -19q14 -15 14 -42
q0 -64 -102 -64q-48 0 -90.5 12t-68.5 38l-112 -112q51 -53 116.5 -73.5t153.5 -20.5q57 0 107 15t88 43.5t59 70.5t21 95zM496 961h-120l-79 -83l-79 83h-120l136 -179h126z" />
    <glyph glyph-name="scaron" unicode="&#x161;" horiz-adv-x="504" 
d="M477 176q0 68 -40.5 112t-121.5 52l-83 8q-22 3 -28.5 11t-6.5 19t13 21t40 10q37 0 66.5 -6.5t47.5 -25.5l101 101q-37 37 -88.5 51.5t-123.5 14.5q-41 0 -79 -11t-69 -34t-48.5 -56.5t-17.5 -76.5q0 -75 41 -112t115 -44l83 -8q22 -2 30.5 -11.5t8.5 -22.5
q0 -19 -22.5 -27t-47.5 -8q-35 0 -68.5 8t-62.5 37l-106 -106q50 -50 103.5 -64t130.5 -14q48 0 90 11t74.5 33t50.5 57t18 81zM452 789h-120l-79 -83l-79 83h-120l136 -179h126z" />
    <glyph glyph-name="Ydieresis" unicode="&#x178;" horiz-adv-x="605" 
d="M605 712h-191l-111 -256l-112 256h-191l215 -422v-290h175v290zM482 781v145h-134v-145h134zM256 781v145h-134v-145h134z" />
    <glyph glyph-name="Zcaron" unicode="&#x17d;" horiz-adv-x="543" 
d="M513 0v156h-274l274 420v136h-471v-156h261l-273 -420v-136h483zM472 961h-120l-79 -83l-79 83h-120l136 -179h126z" />
    <glyph glyph-name="zcaron" unicode="&#x17e;" horiz-adv-x="489" 
d="M449 0v148h-209l209 269v121h-407v-148h193l-205 -269v-121h419zM444 789h-120l-79 -83l-79 83h-120l136 -179h126z" />
    <glyph glyph-name="florin" unicode="&#x192;" horiz-adv-x="441" 
d="M411 585v137l-86 1q-43 0 -77.5 -13.5t-59 -37t-39 -51.5t-19.5 -57l-28 -160h-71v-126h49l-80 -452h164l80 452h112v126h-90l26 148q6 33 39 33h80z" />
    <glyph glyph-name="circumflex" unicode="&#x2c6;" horiz-adv-x="500" 
d="M449 610l-136 179h-126l-136 -179h120l79 83l79 -83h120z" />
    <glyph glyph-name="caron" unicode="&#x2c7;" horiz-adv-x="500" 
d="M449 789h-120l-79 -83l-79 83h-120l136 -179h126z" />
    <glyph glyph-name="breve" unicode="&#x2d8;" horiz-adv-x="500" 
d="M414 750h-106q-2 -25 -19 -36t-39 -11t-39 11t-19 36h-106q1 -42 15.5 -72.5t38 -49t51.5 -27t59 -8.5t59.5 8.5t51.5 27t37.5 48.5t15.5 73z" />
    <glyph glyph-name="dotaccent" unicode="&#x2d9;" horiz-adv-x="500" 
d="M332 593v125h-164v-125h164z" />
    <glyph glyph-name="ring" unicode="&#x2da;" horiz-adv-x="500" 
d="M388 731q0 58 -40.5 98t-97.5 40t-97.5 -40.5t-40.5 -97.5t40.5 -97.5t97.5 -40.5t97.5 40.5t40.5 97.5zM302 731q0 -21 -15.5 -36.5t-36.5 -15.5t-36.5 15.5t-15.5 36.5t15.5 36.5t36.5 15.5t36.5 -15.5t15.5 -36.5z" />
    <glyph glyph-name="ogonek" unicode="&#x2db;" horiz-adv-x="500" 
d="M341 -200l-67 144h-115l36 -144h146z" />
    <glyph glyph-name="tilde" unicode="&#x2dc;" horiz-adv-x="500" 
d="M443 683l-70 69q-17 -17 -29.5 -22t-28.5 -5q-26 0 -55 17q-22 13 -39.5 17.5t-41.5 4.5q-34 0 -61 -14.5t-61 -48.5l68 -69q17 17 29.5 22t28.5 5q27 0 56 -17q22 -13 39.5 -17.5t41.5 -4.5q34 0 62 15t61 48z" />
    <glyph glyph-name="hungarumlaut" unicode="&#x2dd;" horiz-adv-x="500" 
d="M475 790h-168l-49 -180h99zM242 790h-168l-49 -180h100z" />
    <glyph glyph-name="Delta" unicode="&#x394;" horiz-adv-x="653" 
d="M653 0l-259 712h-135l-259 -712h653zM424 146h-192l99 296z" />
    <glyph glyph-name="Omega" unicode="&#x3a9;" horiz-adv-x="640" 
d="M591 0v156h-45q16 21 25 48q20 60 20 152q0 111 -12.5 173t-59.5 109q-40 40 -88 60t-111 20t-111 -20t-88 -60q-47 -47 -59.5 -109t-12.5 -173q0 -92 20 -152q9 -27 25 -48h-45v-156h233v136q-20 10 -32 25q-13 18 -19.5 56t-6.5 129t6.5 128t19.5 55q11 14 29.5 23.5
t40.5 9.5t40.5 -9.5t29.5 -23.5q14 -18 20 -55t6 -128t-6.5 -129t-19.5 -56q-11 -15 -32 -25v-136h233z" />
    <glyph glyph-name="pi" unicode="&#x3c0;" horiz-adv-x="592" 
d="M530 0v538h-468v-538h164v382h140v-382h164z" />
    <glyph glyph-name="endash" unicode="&#x2013;" 
d="M507 218v154h-458v-154h458z" />
    <glyph glyph-name="emdash" unicode="&#x2014;" horiz-adv-x="1093" 
d="M1044 220v158h-995v-158h995z" />
    <glyph glyph-name="quoteleft" unicode="&#x2018;" horiz-adv-x="278" 
d="M221 566v266l-164 -120v-146h164z" />
    <glyph glyph-name="quoteright" unicode="&#x2019;" horiz-adv-x="278" 
d="M221 565v147h-164v-265z" />
    <glyph glyph-name="quotesinglbase" unicode="&#x201a;" horiz-adv-x="276" 
d="M221 0v147h-164v-265z" />
    <glyph glyph-name="quotedblleft" unicode="&#x201c;" horiz-adv-x="511" 
d="M454 566v266l-164 -120v-146h164zM220 566v266l-163 -120v-146h163z" />
    <glyph glyph-name="quotedblright" unicode="&#x201d;" horiz-adv-x="511" 
d="M454 565v147h-164v-265zM220 565v147h-163v-265z" />
    <glyph glyph-name="quotedblbase" unicode="&#x201e;" horiz-adv-x="514" 
d="M454 0v147h-164v-265zM220 0v147h-163v-265z" />
    <glyph glyph-name="dagger" unicode="&#x2020;" horiz-adv-x="564" 
d="M517 390v148h-153v174h-164v-174h-153v-148h153v-390h164v390h153z" />
    <glyph glyph-name="daggerdbl" unicode="&#x2021;" horiz-adv-x="564" 
d="M517 0v148h-153v242h153v148h-153v174h-164v-174h-153v-148h153v-242h-153v-148h153v-174h164v174h153z" />
    <glyph glyph-name="bullet" unicode="&#x2022;" horiz-adv-x="470" 
d="M398 334q0 33 -12.5 63t-35 52.5t-52.5 35t-63 12.5t-63 -12.5t-52.5 -35t-35 -52.5t-12.5 -63t12.5 -63t35 -52.5t52.5 -35t63 -12.5t63 12.5t52.5 35t35 52.5t12.5 63z" />
    <glyph glyph-name="ellipsis" unicode="&#x2026;" horiz-adv-x="899" 
d="M842 0v170h-170v-170h170zM534 0v170h-170v-170h170zM227 0v170h-170v-170h170z" />
    <glyph glyph-name="perthousand" unicode="&#x2030;" horiz-adv-x="1229" 
d="M1184 133v95q0 67 -43.5 103t-107.5 36t-107.5 -36t-43.5 -103v-95q0 -67 43.5 -103t107.5 -36t107.5 36t43.5 103zM1068 137q0 -21 -9.5 -30t-25.5 -9t-25.5 9t-9.5 30v87q0 21 9.5 30t25.5 9t25.5 -9t9.5 -30v-87zM812 133v95q0 67 -43.5 103t-107.5 36t-107.5 -36
t-43.5 -103v-95q0 -67 43.5 -103t107.5 -36t107.5 36t43.5 103zM696 137q0 -21 -9.5 -30t-25.5 -9t-25.5 9t-9.5 30v87q0 21 9.5 30t25.5 9t25.5 -9t9.5 -30v-87zM661 712h-126l-339 -712h126zM347 484v95q0 67 -43.5 103t-107.5 36t-107.5 -36t-43.5 -103v-95
q0 -67 43.5 -103t107.5 -36t107.5 36t43.5 103zM231 488q0 -21 -9.5 -30t-25.5 -9t-25.5 9t-9.5 30v87q0 21 9.5 30t25.5 9t25.5 -9t9.5 -30v-87z" />
    <glyph glyph-name="guilsinglleft" unicode="&#x2039;" horiz-adv-x="363" 
d="M303 9v193l-79 78l79 77v193l-273 -270z" />
    <glyph glyph-name="guilsinglright" unicode="&#x203a;" horiz-adv-x="363" 
d="M333 280l-273 270v-193l80 -77l-80 -78v-193z" />
    <glyph glyph-name="fraction" unicode="&#x2044;" horiz-adv-x="221" 
d="M343 712h-126l-339 -712h126z" />
    <glyph glyph-name="trademark" unicode="&#x2122;" horiz-adv-x="973" 
d="M906 285v427h-117l-117 -210l-117 210h-117v-427h117v219l67 -131h100l67 131v-219h117zM377 608v104h-326v-104h105v-323h116v323h105z" />
    <glyph glyph-name="partialdiff" unicode="&#x2202;" horiz-adv-x="561" 
d="M499 259v210q0 113 -61.5 181t-181.5 68q-67 0 -115 -15.5t-87 -54.5l102 -102q34 34 92 34q25 0 42 -8.5t26.5 -20t13.5 -22t4 -16.5v-1q-24 12 -63 12q-57 0 -96 -18t-67 -47q-32 -35 -44.5 -79t-12.5 -121q0 -78 12.5 -121t44.5 -78q27 -29 68 -47.5t99 -18.5t99 18.5
t68 47.5q33 35 45 78t12 121zM335 259q0 -43 -4 -66.5t-17 -36.5q-14 -14 -39 -14t-39 14q-13 13 -17 36.5t-4 66.5t4 66.5t17 36.5q14 14 39 14t39 -14q13 -13 17 -36.5t4 -66.5z" />
    <glyph glyph-name="product" unicode="&#x220f;" horiz-adv-x="680" 
d="M608 -174v934h-536v-934h175v779h186v-779h175z" />
    <glyph glyph-name="summation" unicode="&#x2211;" horiz-adv-x="553" 
d="M523 -176v156h-291l126 237v163l-118 224h278v156h-484v-136l177 -322l-181 -342v-136h493z" />
    <glyph glyph-name="periodcentered" unicode="&#x2219;" horiz-adv-x="294" 
d="M237 205v180h-180v-180h180z" />
    <glyph glyph-name="radical" unicode="&#x221a;" horiz-adv-x="616" 
d="M586 556v156h-224l-118 -398l-67 224h-177l178 -538h130l184 556h94z" />
    <glyph glyph-name="infinity" unicode="&#x221e;" horiz-adv-x="876" 
d="M829 295q0 90 -54 148t-155 58q-52 0 -98.5 -24t-83.5 -64q-37 40 -83.5 64t-98.5 24q-101 0 -155 -58t-54 -148t54 -148t155 -58q52 0 98.5 24t83.5 64q37 -40 83.5 -64t98.5 -24q101 0 155 58t54 148zM669 290q0 -23 -14 -36t-34 -13q-19 0 -34 12.5t-35 36.5
q20 24 35 36.5t34 12.5q20 0 34 -13t14 -36zM324 290q-20 -24 -35 -36.5t-34 -12.5q-20 0 -34 13t-14 36t14 36t34 13q19 0 34 -12.5t35 -36.5z" />
    <glyph glyph-name="integral" unicode="&#x222b;" horiz-adv-x="560" 
d="M490 592v138h-73q-101 0 -162.5 -53t-61.5 -152v-488q0 -34 -18 -50t-51 -16h-55v-138h73q101 0 162.5 53t61.5 152v488q0 34 18 50t51 16h55z" />
    <glyph glyph-name="approxequal" unicode="&#x2248;" horiz-adv-x="646" 
d="M616 408l-106 104q-25 -25 -44.5 -33t-43.5 -8q-41 0 -84 25q-33 20 -60.5 27t-62.5 7q-51 0 -92.5 -22.5t-92.5 -73.5l104 -104q25 25 44.5 33t43.5 8q41 0 84 -25q33 -20 60.5 -27t62.5 -7q52 0 94 22.5t93 73.5zM616 154l-104 104q-25 -25 -44.5 -33t-43.5 -8
q-41 0 -84 25q-33 20 -60.5 27t-62.5 7q-52 0 -94 -22.5t-93 -73.5l106 -104q25 25 44.5 33t43.5 8q41 0 84 -25q33 -20 60.5 -27t62.5 -7q52 0 93 22.5t92 73.5z" />
    <glyph glyph-name="notequal" unicode="&#x2260;" horiz-adv-x="640" 
d="M591 96v154h-227l66 90h161v154h-48l48 66l-99 74l-103 -140h-340v-154h227l-66 -90h-161v-154h48l-48 -66l99 -74l103 140h340z" />
    <glyph glyph-name="lessequal" unicode="&#x2264;" horiz-adv-x="1027" 
d="M897 20l-462 462l427 -2l-145 145h-534v-534l145 -145l-2 427l462 -462z" />
    <glyph glyph-name="greaterequal" unicode="&#x2265;" horiz-adv-x="1027" 
d="M843 92v533h-533l-145 -145l427 3l-463 -463l109 -109l463 463l-3 -427z" />
    <glyph glyph-name="lozenge" unicode="&#x25ca;" horiz-adv-x="628" 
d="M581 334l-267 368l-267 -368l267 -368zM396 334l-82 -112l-82 112l82 112z" />
    <glyph glyph-name="fi" unicode="&#xf001;" horiz-adv-x="626" 
d="M564 593v125h-164v-125h164zM564 0v517h-164v-517h164zM328 391v126h-90v35q0 33 33 33h57v138h-87q-42 0 -74.5 -14t-52.5 -37t-30 -51t-10 -57v-47h-49v-126h49v-391h164v391h90z" />
    <glyph glyph-name="fl" unicode="&#xf002;" horiz-adv-x="674" 
d="M654 0v138h-57q-33 0 -33 33v541h-164v-553q0 -29 10 -57t30 -51t52.5 -37t74.5 -14h87zM328 391v126h-90v35q0 33 33 33h57v138h-87q-42 0 -74.5 -14t-52.5 -37t-30 -51t-10 -57v-47h-49v-126h49v-391h164v391h90z" />
    </font>
</defs>
</svg>
